<svg xmlns="http://www.w3.org/2000/svg" width="31.969" height="24" viewBox="0 0 31.969 24">
  <metadata><?xpacket begin="﻿" id="W5M0MpCehiHzreSzNTczkc9d"?>
<x:xmpmeta xmlns:x="adobe:ns:meta/" x:xmptk="Adobe XMP Core 5.6-c142 79.160924, 2017/07/13-01:06:39        ">
   <rdf:RDF xmlns:rdf="http://www.w3.org/1999/02/22-rdf-syntax-ns#">
      <rdf:Description rdf:about=""/>
   </rdf:RDF>
</x:xmpmeta>
                                                                                                    
                                                                                                    
                                                                                                    
                                                                                                    
                                                                                                    
                                                                                                    
                                                                                                    
                                                                                                    
                                                                                                    
                                                                                                    
                                                                                                    
                                                                                                    
                                                                                                    
                                                                                                    
                                                                                                    
                                                                                                    
                                                                                                    
                                                                                                    
                                                                                                    
                                                                                                    
                           
<?xpacket end="w"?></metadata>
<defs>
    <style>
      .cls-1 {
        fill: #b60e6d;
        fill-rule: evenodd;
      }
    </style>
  </defs>
  <path class="cls-1" d="M69.788,419.668l-0.038.015v0.755c0,1.825-2.265,2.89-4.165,3.462a30.893,30.893,0,0,1-8.651,1.105c-5.761,0-12.205-1.293-12.742-4.13l-0.079-2.385-0.048-3.175-0.042-5.769a3.743,3.743,0,0,1,.587-2.181c1.828-1.975,6.844-2.8,10.928-2.909l2.274-.016c0.074,0,.146,0,0.218.008l0.183,0.007,0.019-.022A10.224,10.224,0,0,1,65.923,401,9.907,9.907,0,0,1,76,410.7,9.686,9.686,0,0,1,69.788,419.668Zm-23.633.8v0.021c0,0.2.5,0.907,2.739,1.579a29.412,29.412,0,0,0,8.042.985A28.915,28.915,0,0,0,65,422.037c2.292-.7,2.76-1.439,2.76-1.6v-0.193l-0.071.012a10.57,10.57,0,0,1-1.764.151,10.359,10.359,0,0,1-5.155-1.365l-0.017-.01-0.02,0a39.036,39.036,0,0,1-4.007.2c-4.312,0-8.249-.678-10.533-1.815l-0.09-.045ZM56.6,406.417a29.692,29.692,0,0,0-7.586.882c-2.2.608-2.973,1.292-3.085,1.6l-0.008.021,0.008,0.021a0.818,0.818,0,0,1,.039.164l0.008,0.021c0.252,0.4,1.19,1.017,3.07,1.537a29.591,29.591,0,0,0,6.775.88l0.068,0-0.006-.066c-0.023-.287-0.035-0.541-0.035-0.776a9.325,9.325,0,0,1,.99-4.2l0.043-.086H56.6Zm-0.312,7.124-0.013-.041H56.227a32.054,32.054,0,0,1-7.744-.963,12.507,12.507,0,0,1-2.4-.9l-0.09-.045,0.066,3.38,0.014,0.016a7.5,7.5,0,0,0,3.482,1.535,30.5,30.5,0,0,0,7.168.763c0.493,0,1.026-.012,1.629-0.038l0.129,0-0.087-.094A9.534,9.534,0,0,1,56.285,413.541ZM65.923,402.9a7.809,7.809,0,1,0,8.1,7.8A7.965,7.965,0,0,0,65.923,402.9Zm-1.147,8.787v2.5l-4.358-4.263,4.358-4.267v2.437c4.354,0.61,6.224,3.656,6.843,6.7C70.063,412.66,67.888,411.687,64.776,411.687Z" transform="translate(-44.031 -401)"/>
</svg>
