<svg xmlns="http://www.w3.org/2000/svg" width="471px" height="144px">
<path fill-rule="evenodd"  fill="rgb(174, 95, 48)"
 d="M30.500,50.742 L0.001,68.371 L30.501,86.000 L60.999,68.372 L30.500,50.742 "/>
<path fill-rule="evenodd"  fill="rgb(174, 95, 48)"
 d="M207.500,81.742 L177.001,99.371 L207.501,117.000 L237.999,99.372 L207.500,81.742 "/>
<path fill-rule="evenodd"  fill="rgb(174, 95, 48)"
 d="M330.500,37.742 L300.001,55.371 L330.501,73.000 L360.999,55.372 L330.500,37.742 "/>
<path fill-rule="evenodd"  fill="rgb(174, 95, 48)"
 d="M388.500,108.742 L358.001,126.371 L388.501,144.000 L418.999,126.372 L388.500,108.742 "/>
<path fill-rule="evenodd"  fill="rgb(174, 95, 48)"
 d="M440.500,12.464 L410.001,30.232 L440.501,48.000 L470.999,30.234 L440.500,12.464 "/>
<path fill-rule="evenodd"  opacity="0.302" fill="rgb(140, 73, 32)"
 d="M440.500,-0.004 L410.001,17.764 L440.501,35.532 L470.999,17.765 L440.500,-0.004 "/>
<path fill-rule="evenodd"  opacity="0.6" fill="rgb(210, 124, 72)"
 d="M388.500,99.000 L358.001,116.629 L388.501,134.258 L418.999,116.630 L388.500,99.000 "/>
</svg>