<svg 
 xmlns="http://www.w3.org/2000/svg"
 width="14px" height="16px">
<path fill-rule="evenodd"  fill="rgb(179, 179, 179)"
 d="M10.316,0.000 L1.474,0.000 C0.663,0.000 0.000,0.655 0.000,1.455 L0.000,11.636 L1.474,11.636 L1.474,1.455 L10.316,1.455 L10.316,0.000 ZM12.526,2.909 L4.421,2.909 C3.611,2.909 2.947,3.564 2.947,4.364 L2.947,14.545 C2.947,15.345 3.611,16.000 4.421,16.000 L12.526,16.000 C13.337,16.000 14.000,15.345 14.000,14.545 L14.000,4.364 C14.000,3.564 13.337,2.909 12.526,2.909 ZM12.526,14.545 L4.421,14.545 L4.421,4.364 L12.526,4.364 L12.526,14.545 Z"/>
</svg>