<svg xmlns="http://www.w3.org/2000/svg" width="27" height="27" viewBox="0 0 27 27">
  <metadata><?xpacket begin="﻿" id="W5M0MpCehiHzreSzNTczkc9d"?>
<x:xmpmeta xmlns:x="adobe:ns:meta/" x:xmptk="Adobe XMP Core 5.6-c142 79.160924, 2017/07/13-01:06:39        ">
   <rdf:RDF xmlns:rdf="http://www.w3.org/1999/02/22-rdf-syntax-ns#">
      <rdf:Description rdf:about=""/>
   </rdf:RDF>
</x:xmpmeta>
                                                                                                    
                                                                                                    
                                                                                                    
                                                                                                    
                                                                                                    
                                                                                                    
                                                                                                    
                                                                                                    
                                                                                                    
                                                                                                    
                                                                                                    
                                                                                                    
                                                                                                    
                                                                                                    
                                                                                                    
                                                                                                    
                                                                                                    
                                                                                                    
                                                                                                    
                                                                                                    
                           
<?xpacket end="w"?></metadata>
<defs>
    <style>
      .cls-1 {
        fill: #b60e6d;
        fill-rule: evenodd;
      }
    </style>
  </defs>
  <path id="Icon" class="cls-1" d="M69.886,208.527v5.23H67.826v-5.23H65.712l3.122-3.351L72,208.527H69.886Zm-9.632,13.19-0.248.04V225H57.686v-3.222l-0.441-.059a9.639,9.639,0,0,1-1.919-.456,9.23,9.23,0,0,1-2.651-1.364,8.47,8.47,0,0,1-.685-0.538c-0.047-.044-0.229-0.207-0.265-0.241l1.537-1.668a9.255,9.255,0,0,0,4.144,2.037,6.505,6.505,0,0,0,1.361.144,4.753,4.753,0,0,0,2.74-.814,2.945,2.945,0,0,0,1.319-2.537,2.3,2.3,0,0,0-.35-1.216,3.728,3.728,0,0,0-.68-0.831,5.12,5.12,0,0,0-1.114-.707c-0.443-.222-0.817-0.4-1.11-0.527s-0.731-.3-1.317-0.523q-0.638-.257-1.005-0.4t-0.969-.409c-0.4-.175-0.717-0.329-0.948-0.459s-0.529-.313-0.875-0.539a4.987,4.987,0,0,1-.754-0.583,9.39,9.39,0,0,1-.653-0.72,3.17,3.17,0,0,1-.469-0.747,5.66,5.66,0,0,1-.3-0.934,4.733,4.733,0,0,1-.119-1.076,4.634,4.634,0,0,1,1.387-3.341,6.7,6.7,0,0,1,3.736-1.911l0.4-.075L57.686,198h2.319v3.281l0.289,0.017a8.515,8.515,0,0,1,1.646.336,9.87,9.87,0,0,1,1.307.49,7.151,7.151,0,0,1,.933.539c0.41,0.281.532,0.378,0.566,0.408l0.479,0.427-1.5,1.594c-0.019-.015-0.039-0.031-0.06-0.046-0.15-.115-0.376-0.266-0.692-0.461a8.975,8.975,0,0,0-1.034-.554,8.021,8.021,0,0,0-1.336-.458,6.284,6.284,0,0,0-1.579-.207,5.047,5.047,0,0,0-2.951.819,2.823,2.823,0,0,0-1.1,3.383,2.516,2.516,0,0,0,.667.93,7.832,7.832,0,0,0,.709.579,6.357,6.357,0,0,0,1.033.564q0.627,0.287,1.013.443c0.254,0.1.638,0.25,1.158,0.445,0.564,0.208,1,.371,1.294.492,0.283,0.113.672,0.289,1.188,0.536a9.1,9.1,0,0,1,1.13.621,9.37,9.37,0,0,1,.931.736,3.436,3.436,0,0,1,.71.824,5.011,5.011,0,0,1,.444,1.06v0a4.433,4.433,0,0,1,.182,1.284,5.222,5.222,0,0,1-1.423,3.694A6.231,6.231,0,0,1,60.254,221.717ZM45,214.024h2.114V208.8h2.06v5.229h2.114l-3.167,3.351Z" transform="translate(-45 -198)"/>
</svg>
