<svg xmlns="http://www.w3.org/2000/svg" width="10px" height="10px">
<path fill-rule="evenodd"  opacity="0.302" fill="rgb(24, 24, 24)"
 d="M0.634,0.958 L2.318,0.958 L2.318,5.992 L0.634,5.992 L0.634,0.958 ZM9.864,5.577 C9.864,6.039 9.471,6.416 8.992,6.416 L6.246,6.416 L6.682,8.348 C6.682,8.390 6.682,8.432 6.682,8.474 C6.682,8.642 6.595,8.810 6.507,8.936 L6.028,9.356 L3.421,6.584 C3.247,6.458 3.160,6.249 3.160,5.997 L3.160,1.798 C3.160,1.336 3.552,0.958 4.031,0.958 L7.684,0.958 C8.033,0.958 8.338,1.168 8.469,1.462 L9.776,4.443 C9.820,4.527 9.820,4.653 9.820,4.737 L9.820,5.577 L9.864,5.577 C9.864,5.535 9.864,5.577 9.864,5.577 Z"/>
</svg>