<?xml version="1.0" encoding="utf-8"?>
<!-- Generator: Adobe Illustrator 18.1.1, SVG Export Plug-In . SVG Version: 6.00 Build 0)  -->
<svg version="1.1" id="Слой_1" xmlns="http://www.w3.org/2000/svg" xmlns:xlink="http://www.w3.org/1999/xlink" x="0px" y="0px"
	 viewBox="0 0 436.8 471.2" enable-background="new 0 0 436.8 471.2" xml:space="preserve">
<g>
	<defs>
		<rect id="SVGID_1_" width="436.8" height="471.2"/>
	</defs>
	<clipPath id="SVGID_2_">
		<use xlink:href="#SVGID_1_"  overflow="visible"/>
	</clipPath>
	<path clip-path="url(#SVGID_2_)" d="M210.4,444.2H87.5C54.1,444.2,27,417,27,383.7V87.5C27,54.1,54.2,27,87.5,27h124.9
		c7.5,0,13.5-6,13.5-13.5S219.9,0,212.4,0H87.5C39.2,0,0,39.3,0,87.5v296.2c0,48.3,39.3,87.5,87.5,87.5h122.9
		c7.5,0,13.5-6,13.5-13.5S217.8,444.2,210.4,444.2"/>
	<path clip-path="url(#SVGID_2_)" d="M107.4,245.3l85.8,85.8c2.6,2.7,6.1,4,9.5,4c3.4,0,6.9-1.4,9.5-4c5.3-5.3,5.3-13.8,0-19.1
		l-62.8-62.8h273.9c7.5,0,13.5-6,13.5-13.5s-6-13.5-13.5-13.5H149.4l62.8-62.8c5.3-5.3,5.3-13.8,0-19.1c-5.3-5.3-13.8-5.3-19.1,0
		l-85.8,85.8C102,231.3,102,239.9,107.4,245.3"/>
</g>
</svg>
