<?xml version="1.0" encoding="utf-8"?>
<!-- Generator: Adobe Illustrator 22.1.0, SVG Export Plug-In . SVG Version: 6.00 Build 0)  -->
<svg version="1.1" id="Слой_1" xmlns="http://www.w3.org/2000/svg" xmlns:xlink="http://www.w3.org/1999/xlink" x="0px" y="0px"
	 viewBox="0 0 512 393" style="enable-background:new 0 0 512 393;" xml:space="preserve">
<g>
	<g>
		<g>
			<path d="M486.4-0.3H25.6C11.5-0.3,0,11.2,0,25.3v341.3c0,14.1,11.5,25.6,25.6,25.6h460.8c14.1,0,25.6-11.5,25.6-25.6V25.3
				C512,11.2,500.5-0.3,486.4-0.3z M494.9,366.7c0,4.7-3.8,8.5-8.5,8.5H25.6c-4.7,0-8.5-3.8-8.5-8.5V25.3c0-4.7,3.8-8.5,8.5-8.5
				h460.8c4.7,0,8.5,3.8,8.5,8.5L494.9,366.7L494.9,366.7z"/>
			<path d="M470.1,33.9c-2.3-0.2-4.5,0.5-6.2,2L267,201.2c-6.3,5.3-15.6,5.3-22,0L48.2,35.9c-2.3-2-5.5-2.5-8.4-1.5
				c-2.9,1-5,3.5-5.5,6.5s0.6,6.1,2.9,8L234,214.3c12.7,10.7,31.2,10.7,43.9,0L474.8,48.9c1.7-1.5,2.8-3.5,3-5.8
				c0.2-2.3-0.5-4.5-2-6.2C474.4,35.2,472.3,34.1,470.1,33.9z"/>
			<path d="M164.1,213.1c-3-0.7-6.2,0.3-8.2,2.6l-119.5,128c-2.2,2.2-3,5.4-2.1,8.4c0.9,3,3.3,5.2,6.3,5.9c3,0.7,6.2-0.3,8.2-2.6
				l119.5-128c2.2-2.2,3-5.4,2.1-8.4S167.1,213.8,164.1,213.1z"/>
			<path d="M356.1,215.8c-2.1-2.3-5.2-3.3-8.2-2.6s-5.4,2.9-6.3,5.9c-0.9,3-0.1,6.2,2.1,8.4l119.5,128c3.2,3.3,8.5,3.4,11.9,0.3
				c3.4-3.2,3.6-8.5,0.5-11.9L356.1,215.8z"/>
		</g>
	</g>
</g>
</svg>
