<svg xmlns="http://www.w3.org/2000/svg" width="26" height="27" viewBox="0 0 26 27">
  <metadata><?xpacket begin="﻿" id="W5M0MpCehiHzreSzNTczkc9d"?>
<x:xmpmeta xmlns:x="adobe:ns:meta/" x:xmptk="Adobe XMP Core 5.6-c142 79.160924, 2017/07/13-01:06:39        ">
   <rdf:RDF xmlns:rdf="http://www.w3.org/1999/02/22-rdf-syntax-ns#">
      <rdf:Description rdf:about=""/>
   </rdf:RDF>
</x:xmpmeta>
                                                                                                    
                                                                                                    
                                                                                                    
                                                                                                    
                                                                                                    
                                                                                                    
                                                                                                    
                                                                                                    
                                                                                                    
                                                                                                    
                                                                                                    
                                                                                                    
                                                                                                    
                                                                                                    
                                                                                                    
                                                                                                    
                                                                                                    
                                                                                                    
                                                                                                    
                                                                                                    
                           
<?xpacket end="w"?></metadata>
<defs>
    <style>
      .cls-1 {
        fill: #b60e6d;
        fill-rule: evenodd;
      }
    </style>
  </defs>
  <path id="Icon" class="cls-1" d="M69.61,624.994H50.388A3.235,3.235,0,0,1,47,621.953V605.474a3.415,3.415,0,0,1,3.392-3.234h2.859v-1.2a0.837,0.837,0,0,1,.971-0.726h2.189A3.662,3.662,0,0,1,59.964,598a3.606,3.606,0,0,1,3.551,2.314h2.227a0.875,0.875,0,0,1,1.01.726v1.2h2.859A3.414,3.414,0,0,1,73,605.468v16.485A3.235,3.235,0,0,1,69.61,624.994Zm-4.643-22.92H62.851a0.968,0.968,0,0,1-.891-0.784,2.1,2.1,0,0,0-2-1.646,2.146,2.146,0,0,0-2.037,1.65,0.958,0.958,0,0,1-.837.779H55.031v2.866h9.936v-2.866Zm6.251,3.4A1.635,1.635,0,0,0,69.608,604H66.752v1.858a0.977,0.977,0,0,1-1.016.842H54.217a0.923,0.923,0,0,1-.97-0.832V604H50.388a1.636,1.636,0,0,0-1.609,1.481v16.47a1.466,1.466,0,0,0,1.608,1.279H69.61a1.466,1.466,0,0,0,1.608-1.279V605.474ZM68.2,618.658H59.218a0.881,0.881,0,1,1,0-1.762H68.2A0.881,0.881,0,1,1,68.2,618.658Zm0-6.171H59.218a0.881,0.881,0,1,1,0-1.762H68.2A0.881,0.881,0,1,1,68.2,612.487ZM54.02,619.36a0.894,0.894,0,0,1-.622.262H53.373a0.819,0.819,0,0,1-.606-0.268l-1.6-1.617a0.879,0.879,0,1,1,1.254-1.231l0.978,1,2.422-2.278a0.9,0.9,0,0,1,1.249.044,0.547,0.547,0,0,1,.046.046,0.834,0.834,0,0,1-.052,1.19Zm0-6.17a0.889,0.889,0,0,1-.622.261H53.373a0.816,0.816,0,0,1-.606-0.269l-1.6-1.616a0.879,0.879,0,1,1,1.254-1.232l0.977,1,2.422-2.279a0.905,0.905,0,0,1,1.249.044,0.507,0.507,0,0,1,.047.046,0.836,0.836,0,0,1-.052,1.19Z" transform="translate(-47 -598)"/>
</svg>
