<svg xmlns="http://www.w3.org/2000/svg" width="10px" height="9px">
<path fill-rule="evenodd"  opacity="0.302" fill="rgb(24, 24, 24)"
 d="M0.523,8.676 L2.206,8.676 L2.206,3.643 L0.523,3.643 L0.523,8.676 ZM9.752,4.057 C9.752,3.595 9.360,3.218 8.880,3.218 L6.134,3.218 L6.570,1.287 C6.570,1.244 6.570,1.202 6.570,1.161 C6.570,0.992 6.483,0.825 6.396,0.699 L5.917,0.279 L3.310,3.050 C3.135,3.176 3.048,3.385 3.048,3.637 L3.048,7.836 C3.048,8.298 3.440,8.676 3.920,8.676 L7.573,8.676 C7.922,8.676 8.227,8.466 8.357,8.172 L9.665,5.191 C9.709,5.107 9.709,4.981 9.709,4.897 L9.709,4.057 L9.752,4.057 C9.752,4.099 9.752,4.057 9.752,4.057 Z"/>
</svg>