<svg 
 xmlns="http://www.w3.org/2000/svg"
 xmlns:xlink="http://www.w3.org/1999/xlink"
 width="639px" height="335px">
<defs>
<linearGradient id="PSgrad_0" x1="0%" x2="0%" y1="0%" y2="100%">
  <stop offset="25%" stop-color="rgb(187,103,53)" stop-opacity="1" />
  <stop offset="100%" stop-color="rgb(213,123,70)" stop-opacity="1" />
</linearGradient>

</defs>
<path fill-rule="evenodd"  fill="rgb(226, 237, 239)"
 d="M638.928,256.725 C638.807,256.276 638.519,255.903 638.120,255.675 L528.568,192.562 C528.037,192.265 527.382,192.265 526.843,192.569 L459.737,231.230 L349.051,167.466 L409.891,132.417 L468.156,165.983 C468.691,166.288 469.355,166.287 469.890,165.982 L553.741,117.676 C554.142,117.444 554.429,117.071 554.549,116.623 C554.668,116.176 554.606,115.709 554.374,115.308 C553.898,114.486 552.839,114.202 552.003,114.676 L469.022,162.482 L413.362,130.417 L519.846,69.072 C520.247,68.841 520.533,68.468 520.654,68.022 C520.773,67.573 520.711,67.106 520.481,66.709 C520.010,65.891 518.954,65.602 518.108,66.073 L409.890,128.417 L342.889,89.818 C342.354,89.512 341.691,89.512 341.155,89.820 L277.712,126.368 L197.332,80.063 L330.681,3.243 C331.081,3.011 331.368,2.638 331.488,2.192 C331.608,1.744 331.546,1.277 331.313,0.875 C331.080,0.474 330.703,0.187 330.253,0.068 C329.801,-0.049 329.336,0.014 328.943,0.244 L192.995,78.561 C192.483,78.855 192.155,79.391 192.126,79.977 L191.976,80.063 L192.126,80.149 C192.155,80.735 192.483,81.271 192.992,81.563 L227.022,101.167 L168.625,134.808 L72.007,79.148 C71.604,78.916 71.136,78.856 70.687,78.974 C70.239,79.094 69.864,79.381 69.635,79.780 C69.155,80.606 69.439,81.667 70.269,82.148 L165.153,136.808 L128.685,157.818 C128.173,158.111 127.846,158.647 127.816,159.233 L127.667,159.319 L127.816,159.405 C127.846,159.995 128.176,160.534 128.682,160.818 L173.296,186.520 L151.532,199.058 L2.618,113.272 C2.219,113.037 1.751,112.976 1.300,113.089 C0.849,113.208 0.471,113.495 0.237,113.898 C-0.241,114.720 0.041,115.781 0.871,116.266 L150.649,202.549 C150.916,202.708 151.222,202.791 151.532,202.791 C151.843,202.791 152.149,202.708 152.400,202.558 L176.768,188.520 L243.770,227.120 C244.034,227.272 244.333,227.351 244.636,227.351 C244.938,227.351 245.238,227.272 245.504,227.119 L283.711,205.108 L345.385,240.637 L308.915,261.647 C308.404,261.941 308.076,262.477 308.047,263.063 L307.897,263.149 L308.047,263.235 C308.076,263.821 308.404,264.357 308.913,264.649 L390.045,311.385 C390.315,311.547 390.622,311.633 390.937,311.633 C391.558,311.633 392.135,311.299 392.439,310.767 C392.919,309.941 392.635,308.880 391.805,308.400 L313.252,263.149 L348.857,242.637 L508.754,334.751 C509.023,334.913 509.330,334.999 509.645,334.999 C510.266,334.999 510.843,334.665 511.147,334.133 C511.627,333.307 511.343,332.246 510.513,331.766 L352.328,240.638 L410.726,206.995 L458.871,234.731 C459.406,235.036 460.070,235.035 460.605,234.730 L527.711,196.069 L636.378,258.673 C636.642,258.827 636.944,258.908 637.252,258.908 C637.870,258.908 638.445,258.576 638.754,258.043 C638.987,257.641 639.049,257.174 638.928,256.725 ZM274.240,128.368 L215.842,162.010 L172.097,136.808 L230.494,103.167 L274.240,128.368 ZM281.184,128.368 L342.023,93.320 L406.419,130.417 L345.579,165.466 L281.184,128.368 ZM342.108,167.466 L283.711,201.108 L219.314,164.010 L277.712,130.368 L342.108,167.466 ZM212.371,164.010 L176.767,184.520 L133.022,159.319 L168.625,138.809 L212.371,164.010 ZM215.843,166.010 L280.239,203.108 L244.636,223.619 L180.239,186.520 L215.843,166.010 ZM345.580,169.466 L407.253,204.995 L348.856,238.637 L287.183,203.108 L345.580,169.466 Z"/>
<path fill="url(#PSgrad_0)"
 d="M638.928,256.725 C638.807,256.276 638.519,255.903 638.120,255.675 L528.568,192.562 C528.037,192.265 527.382,192.265 526.843,192.569 L459.737,231.230 L349.051,167.466 L409.891,132.417 L468.156,165.983 C468.691,166.288 469.355,166.287 469.890,165.982 L553.741,117.676 C554.142,117.444 554.429,117.071 554.549,116.623 C554.668,116.176 554.606,115.709 554.374,115.308 C553.898,114.486 552.839,114.202 552.003,114.676 L469.022,162.482 L413.362,130.417 L519.846,69.072 C520.247,68.841 520.533,68.468 520.654,68.022 C520.773,67.573 520.711,67.106 520.481,66.709 C520.010,65.891 518.954,65.602 518.108,66.073 L409.890,128.417 L342.889,89.818 C342.354,89.512 341.691,89.512 341.155,89.820 L277.712,126.368 L197.332,80.063 L330.681,3.243 C331.081,3.011 331.368,2.638 331.488,2.192 C331.608,1.744 331.546,1.277 331.313,0.875 C331.080,0.474 330.703,0.187 330.253,0.068 C329.801,-0.049 329.336,0.014 328.943,0.244 L192.995,78.561 C192.483,78.855 192.155,79.391 192.126,79.977 L191.976,80.063 L192.126,80.149 C192.155,80.735 192.483,81.271 192.992,81.563 L227.022,101.167 L168.625,134.808 L72.007,79.148 C71.604,78.916 71.136,78.856 70.687,78.974 C70.239,79.094 69.864,79.381 69.635,79.780 C69.155,80.606 69.439,81.667 70.269,82.148 L165.153,136.808 L128.685,157.818 C128.173,158.111 127.846,158.647 127.816,159.233 L127.667,159.319 L127.816,159.405 C127.846,159.995 128.176,160.534 128.682,160.818 L173.296,186.520 L151.532,199.058 L2.618,113.272 C2.219,113.037 1.751,112.976 1.300,113.089 C0.849,113.208 0.471,113.495 0.237,113.898 C-0.241,114.720 0.041,115.781 0.871,116.266 L150.649,202.549 C150.916,202.708 151.222,202.791 151.532,202.791 C151.843,202.791 152.149,202.708 152.400,202.558 L176.768,188.520 L243.770,227.120 C244.034,227.272 244.333,227.351 244.636,227.351 C244.938,227.351 245.238,227.272 245.504,227.119 L283.711,205.108 L345.385,240.637 L308.915,261.647 C308.404,261.941 308.076,262.477 308.047,263.063 L307.897,263.149 L308.047,263.235 C308.076,263.821 308.404,264.357 308.913,264.649 L390.045,311.385 C390.315,311.547 390.622,311.633 390.937,311.633 C391.558,311.633 392.135,311.299 392.439,310.767 C392.919,309.941 392.635,308.880 391.805,308.400 L313.252,263.149 L348.857,242.637 L508.754,334.751 C509.023,334.913 509.330,334.999 509.645,334.999 C510.266,334.999 510.843,334.665 511.147,334.133 C511.627,333.307 511.343,332.246 510.513,331.766 L352.328,240.638 L410.726,206.995 L458.871,234.731 C459.406,235.036 460.070,235.035 460.605,234.730 L527.711,196.069 L636.378,258.673 C636.642,258.827 636.944,258.908 637.252,258.908 C637.870,258.908 638.445,258.576 638.754,258.043 C638.987,257.641 639.049,257.174 638.928,256.725 ZM274.240,128.368 L215.842,162.010 L172.097,136.808 L230.494,103.167 L274.240,128.368 ZM281.184,128.368 L342.023,93.320 L406.419,130.417 L345.579,165.466 L281.184,128.368 ZM342.108,167.466 L283.711,201.108 L219.314,164.010 L277.712,130.368 L342.108,167.466 ZM212.371,164.010 L176.767,184.520 L133.022,159.319 L168.625,138.809 L212.371,164.010 ZM215.843,166.010 L280.239,203.108 L244.636,223.619 L180.239,186.520 L215.843,166.010 ZM345.580,169.466 L407.253,204.995 L348.856,238.637 L287.183,203.108 L345.580,169.466 Z"/>
</svg>