<?xml version="1.0" encoding="utf-8"?>
<!-- Generator: Adobe Illustrator 22.1.0, SVG Export Plug-In . SVG Version: 6.00 Build 0)  -->
<svg version="1.1" id="Слой_1" xmlns="http://www.w3.org/2000/svg" xmlns:xlink="http://www.w3.org/1999/xlink" x="0px" y="0px"
	 viewBox="0 0 158.7 158.7" style="enable-background:new 0 0 158.7 158.7;" xml:space="preserve">
<style type="text/css">
	.st0{fill:url(#SVGID_1_);}
	.st1{fill:url(#SVGID_2_);}
	.st2{fill:url(#SVGID_3_);}
	.st3{opacity:0.4;fill:url(#SVGID_4_);}
	.st4{fill:url(#SVGID_5_);}
	.st5{fill:url(#SVGID_6_);}
	.st6{opacity:0.2;fill:url(#SVGID_7_);}
</style>
<g>
	<g>
		
			<radialGradient id="SVGID_1_" cx="65.6256" cy="146.8062" r="67.1971" gradientTransform="matrix(1 0 0 0.7137 0 42.0249)" gradientUnits="userSpaceOnUse">
			<stop  offset="0" style="stop-color:#CD5F26"/>
			<stop  offset="0.4606" style="stop-color:#95227B"/>
			<stop  offset="0.874" style="stop-color:#4E1342"/>
		</radialGradient>
		<path class="st0" d="M82.6,98.7c0,0-47.8-16.4-49.1-16.2c-1.3,0.2-18.4,7.6-18.4,7.6l-7.9,19.3l0,0c-3.6,3.9-5.8,9.1-5.7,14.9
			c0.1,12.1,9.9,21.8,22,21.7c4.8,0,9.2-1.6,12.8-4.2c1.9-0.8,5.1-5.2,5.1-5.3c0.7-1.1,1.4-2.2,1.9-3.4
			C51.8,119.2,70.7,100.2,82.6,98.7z"/>
		
			<radialGradient id="SVGID_2_" cx="128.4062" cy="104.7992" r="141.3249" gradientTransform="matrix(0.6911 0.7228 -0.9462 0.9047 138.8239 -82.8211)" gradientUnits="userSpaceOnUse">
			<stop  offset="0" style="stop-color:#521043"/>
			<stop  offset="0.3182" style="stop-color:#97257A"/>
			<stop  offset="0.6853" style="stop-color:#C85935"/>
			<stop  offset="1" style="stop-color:#95227B"/>
		</radialGradient>
		<path class="st1" d="M135.6,6.8C88-20.6-10.7,49.6,1.5,125.9c21.3-24.4,72.2-24.4,107-30C150.6,89.1,183.1,34.2,135.6,6.8z
			 M129.7,40.1c-2.9,15.7-18.8,13-45.1,14.7c5.9-4.5,12.4-8.6,18.8-11.5c8.2-3.7,17.9-4.8,26.3-3.6C129.8,39.9,129.7,40,129.7,40.1z
			"/>
		<linearGradient id="SVGID_3_" gradientUnits="userSpaceOnUse" x1="43.9935" y1="41.0337" x2="129.8811" y2="41.0337">
			<stop  offset="0.126" style="stop-color:#4E1342"/>
			<stop  offset="0.5394" style="stop-color:#95227B"/>
			<stop  offset="1" style="stop-color:#CD5F26"/>
		</linearGradient>
		<path class="st2" d="M129.7,39.8c3-18.5-25.6-24.3-45.3-15.4C65.9,32.8,46.6,50.6,44,61.7c15.4-4.5,29-6.1,40.6-6.8
			c5.9-4.5,12.4-8.6,18.8-11.5C111.6,39.7,121.3,38.6,129.7,39.8z"/>
		<linearGradient id="SVGID_4_" gradientUnits="userSpaceOnUse" x1="31.7532" y1="11.8893" x2="98.2094" y2="98.4967">
			<stop  offset="0" style="stop-color:#FFFFFF;stop-opacity:0"/>
			<stop  offset="0.3182" style="stop-color:#EEF6FD"/>
			<stop  offset="0.6853" style="stop-color:#F8FBFF;stop-opacity:0"/>
			<stop  offset="1" style="stop-color:#ECF5FD"/>
		</linearGradient>
		<path class="st3" d="M146.3,14.7c-3-2.8-6.6-5.5-10.8-7.9C89.6-19.7-3.9,44.8,0.7,117.9c22.9-21,70.5-21.2,103.7-26.6
			C140.7,85.5,169.9,43.6,146.3,14.7z M44,61.7c2.6-11.1,21.9-29,40.4-37.3c19.6-8.9,48.2-3.1,45.3,15.3c0,0,0.1,0,0.1,0
			c0,0.1,0,0.3-0.1,0.4c-2.9,15.7-25.9,13.8-45.1,14.7C73.2,55.6,59.4,57.3,44,61.7z"/>
		<linearGradient id="SVGID_5_" gradientUnits="userSpaceOnUse" x1="84.9179" y1="113.8749" x2="113.857" y2="151.4958">
			<stop  offset="0.126" style="stop-color:#4E1342"/>
			<stop  offset="0.5394" style="stop-color:#95227B"/>
			<stop  offset="1" style="stop-color:#CD5F26"/>
		</linearGradient>
		<circle class="st4" cx="99.6" cy="132.9" r="24"/>
		<linearGradient id="SVGID_6_" gradientUnits="userSpaceOnUse" x1="69.3504" y1="42.74" x2="34.6216" y2="4.3669">
			<stop  offset="0" style="stop-color:#FFFFFF;stop-opacity:0"/>
			<stop  offset="0.7677" style="stop-color:#ECF5FD"/>
		</linearGradient>
		<path class="st5" d="M10,83.7c0,0,0.7-2.5,2.4-6.6c1.7-4.1,4.4-10,8.4-16.5c4-6.6,9.3-13.8,16-20.8c3.3-3.5,6.9-6.9,10.8-10.1
			c3.9-3.2,8.1-6.2,12.4-9c2.2-1.4,4.4-2.7,6.6-4c1.1-0.6,2.2-1.2,3.4-1.8c1.1-0.6,2.3-1.1,3.4-1.7C78,10.9,82.6,9,87.2,7.5
			c4.6-1.4,9.2-2.5,13.6-3.1c4.4-0.6,8.6-0.8,12.5-0.6c3.9,0.1,7.4,0.7,10.5,1.4c1.5,0.3,2.9,0.8,4.2,1.2c1.3,0.5,2.5,0.9,3.5,1.4
			c2.1,0.9,3.6,1.8,4.6,2.5c0.5,0.4,0.8,0.7,1.1,0.9c0.2,0.2,0.3,0.3,0.3,0.3c0,0,0,0.1,0,0.1c0,0-0.1,0-0.1,0l0,0
			c0,0-0.1-0.1-0.4-0.3c-0.2-0.2-0.6-0.5-1.1-0.8c-1-0.6-2.6-1.4-4.6-2.2c-2.1-0.8-4.7-1.6-7.7-2.1c-1.5-0.3-3.1-0.5-4.9-0.7
			c-1.7-0.2-3.5-0.3-5.4-0.3c-3.8-0.1-7.9,0.2-12.2,0.9c-4.3,0.7-8.8,1.7-13.3,3.2c-4.5,1.4-9.1,3.2-13.6,5.3
			c-1.1,0.5-2.3,1.1-3.4,1.6c-1.1,0.6-2.3,1.2-3.4,1.8c-2.2,1.2-4.4,2.5-6.6,3.8c-4.3,2.7-8.5,5.6-12.4,8.8
			c-3.9,3.1-7.5,6.5-10.9,9.9c-6.7,6.8-12.1,14-16.2,20.4c-4.1,6.4-6.9,12.2-8.7,16.3c-1.8,4.1-2.5,6.6-2.5,6.6c0,0-0.1,0.1-0.1,0.1
			C10,83.8,10,83.7,10,83.7z"/>
		
			<radialGradient id="SVGID_7_" cx="122.1486" cy="516.581" r="8.5202" gradientTransform="matrix(0.7071 0.7071 -1.0945 1.0945 569.8671 -527.9991)" gradientUnits="userSpaceOnUse">
			<stop  offset="0" style="stop-color:#FFFFFF"/>
			<stop  offset="1" style="stop-color:#FFFFFF;stop-opacity:0"/>
		</radialGradient>
		<path class="st6" d="M97.7,130.6c-6.2,6.2-14.4,8.2-18.1,4.5c-3.8-3.8-1.8-11.9,4.5-18.1s14.4-8.2,18.1-4.5
			C105.9,116.2,103.9,124.3,97.7,130.6z"/>
	</g>
</g>
</svg>
