<?xml version="1.0" encoding="utf-8"?>
<!-- Generator: Adobe Illustrator 22.1.0, SVG Export Plug-In . SVG Version: 6.00 Build 0)  -->
<svg version="1.1" id="Слой_1" xmlns="http://www.w3.org/2000/svg" xmlns:xlink="http://www.w3.org/1999/xlink" x="0px" y="0px"
	 viewBox="0 0 178.6 48.2" style="enable-background:new 0 0 178.6 48.2;" xml:space="preserve">
<style type="text/css">
	.st0{fill:#302F2E;}
</style>
<g>
	<g>
		<path class="st0" d="M11.8,15.3v31.2H1.3V15.3H11.8z"/>
		<path class="st0" d="M1.3,0.5h10.5V11H1.3V0.5z"/>
		<path class="st0" d="M91.7,13.6v32.8h-9.8v-3.1c-2.2,2.5-5.4,4-9.8,4c-8.6,0-15.7-7.5-15.7-17.3c0-9.8,7.1-17.3,15.7-17.3
			c4.4,0,7.6,1.5,9.8,4v-3.1H91.7z M81.9,30c0-4.9-3.3-8-7.8-8c-4.5,0-7.8,3.1-7.8,8s3.3,8,7.8,8C78.6,38,81.9,35,81.9,30z"/>
		<path class="st0" d="M45.3,29.6c5.1-2.6,8.5-7.7,8.5-13.3c0-8.7-7-15.7-15.7-15.7H19.7v9.8h14.4v0h4c2.9,0,5.2,2.6,5.2,5.9
			s-2.4,5.9-5.2,5.9h-7.9v-0.1H19.7v24.4h10.5V31.4h5l8.7,15.1h11.3L45.3,29.6z"/>
		<path class="st0" d="M98.9,13.6h9.8v32.8h-9.8V13.6z"/>
		<path class="st0" d="M141.1,36.6c0,7.5-6.6,10.8-13.6,10.8c-6.6,0-11.5-2.5-14.1-7.8l8.5-4.9c0.9,2.5,2.7,3.9,5.6,3.9
			c2.4,0,3.5-0.7,3.5-2c0-3.6-16.1-1.7-16.1-13.1c0-7.2,6-10.8,12.9-10.8c5.3,0,10,2.4,12.8,7l-8.4,4.5c-0.9-1.7-2.2-2.9-4.4-2.9
			c-1.7,0-2.8,0.7-2.8,1.8C125,27,141.1,24.5,141.1,36.6z"/>
		<path class="st0" d="M162.4,38.6c2.7,0,5-1,6.3-2.5l7.9,4.5c-3.2,4.5-8.1,6.8-14.3,6.8c-11.2,0-18.2-7.5-18.2-17.3
			c0-9.8,7.1-17.3,17.5-17.3c9.6,0,16.7,7.4,16.7,17.3c0,1.4-0.1,2.7-0.4,3.9h-23.3C155.7,37.4,158.8,38.6,162.4,38.6z M168.4,26.6
			c-1-3.8-4-5.2-7-5.2c-3.7,0-6.2,1.8-7.2,5.2H168.4z"/>
	</g>
</g>
</svg>
