<svg xmlns="http://www.w3.org/2000/svg" width="13" height="11" viewBox="0 0 13 11">
  <metadata><?xpacket begin="﻿" id="W5M0MpCehiHzreSzNTczkc9d"?>
<x:xmpmeta xmlns:x="adobe:ns:meta/" x:xmptk="Adobe XMP Core 5.6-c142 79.160924, 2017/07/13-01:06:39        ">
   <rdf:RDF xmlns:rdf="http://www.w3.org/1999/02/22-rdf-syntax-ns#">
      <rdf:Description rdf:about=""/>
   </rdf:RDF>
</x:xmpmeta>
                                                                                                    
                                                                                                    
                                                                                                    
                                                                                                    
                                                                                                    
                                                                                                    
                                                                                                    
                                                                                                    
                                                                                                    
                                                                                                    
                                                                                                    
                                                                                                    
                                                                                                    
                                                                                                    
                                                                                                    
                                                                                                    
                                                                                                    
                                                                                                    
                                                                                                    
                                                                                                    
                           
<?xpacket end="w"?></metadata>
<defs>
    <style>
      .cls-1 {
        fill: #555;
        fill-rule: evenodd;
      }
    </style>
  </defs>
  <path id="Icon" class="cls-1" d="M1224.8,126a1.078,1.078,0,0,0,.76-0.309l-3.67-3.7c-0.09.068-.17,0.134-0.25,0.2-0.28.218-.5,0.389-0.67,0.511a4.17,4.17,0,0,1-.68.375,1.971,1.971,0,0,1-.8.191h-0.01a1.971,1.971,0,0,1-.8-0.191,4.17,4.17,0,0,1-.68-0.375c-0.17-.122-0.39-0.293-0.67-0.511-0.07-.061-0.16-0.128-0.25-0.2l-3.67,3.7a1.078,1.078,0,0,0,.76.309h10.63Zm-11.78-7.19v5.772l2.98-3.234C1214.65,120.327,1212.64,118.359,1213.02,118.809Zm9.95,2.54,2.98,3.232v-5.772C1226.32,118.366,1224.35,120.306,1222.97,121.349ZM1224.8,115h-10.63a0.99,0.99,0,0,0-.85.406,0.97,0.97,0,0,0-.3.753,1.936,1.936,0,0,0,.39,1.067,5.756,5.756,0,0,0,.85,1.164c0.16,0.125.66,0.5,1.48,1.113,0.44,0.333.83,0.623,1.16,0.874,0.28,0.213.53,0.4,0.73,0.551,0.02,0.018.06,0.046,0.11,0.084s0.12,0.091.2,0.155q0.225,0.183.39,0.3c0.1,0.075.23,0.16,0.37,0.253a2.237,2.237,0,0,0,.42.212,1.089,1.089,0,0,0,.36.07h0.01a1.089,1.089,0,0,0,.36-0.07,2.237,2.237,0,0,0,.42-0.212c0.15-.093.27-0.178,0.37-0.253s0.24-.175.39-0.3c0.09-.064.15-0.115,0.2-0.155s0.09-.066.11-0.084c0.16-.118.4-0.3,0.73-0.549,0.6-.45,1.48-1.112,2.65-1.989a3.687,3.687,0,0,0,.88-0.961,2.143,2.143,0,0,0,.35-1.18,1.239,1.239,0,0,0-.34-0.882A1.076,1.076,0,0,0,1224.8,115Z" transform="translate(-1213 -115)"/>
</svg>
