<svg xmlns="http://www.w3.org/2000/svg" width="27" height="27" viewBox="0 0 27 27">
  <metadata><?xpacket begin="﻿" id="W5M0MpCehiHzreSzNTczkc9d"?>
<x:xmpmeta xmlns:x="adobe:ns:meta/" x:xmptk="Adobe XMP Core 5.6-c142 79.160924, 2017/07/13-01:06:39        ">
   <rdf:RDF xmlns:rdf="http://www.w3.org/1999/02/22-rdf-syntax-ns#">
      <rdf:Description rdf:about=""/>
   </rdf:RDF>
</x:xmpmeta>
                                                                                                    
                                                                                                    
                                                                                                    
                                                                                                    
                                                                                                    
                                                                                                    
                                                                                                    
                                                                                                    
                                                                                                    
                                                                                                    
                                                                                                    
                                                                                                    
                                                                                                    
                                                                                                    
                                                                                                    
                                                                                                    
                                                                                                    
                                                                                                    
                                                                                                    
                                                                                                    
                           
<?xpacket end="w"?></metadata>
<defs>
    <style>
      .cls-1 {
        fill: #b60e6d;
        fill-rule: evenodd;
      }
    </style>
  </defs>
  <path id="icon" class="cls-1" d="M69.621,734H49.374A3.377,3.377,0,0,1,46,730.621V713.747a2.53,2.53,0,0,1,2.529-2.529h0.845v-1.689A2.531,2.531,0,0,1,51.908,707H70.466A2.534,2.534,0,0,1,73,709.529v21.092A3.378,3.378,0,0,1,69.621,734Zm1.69-24.471a0.842,0.842,0,0,0-.845-0.84H51.908a0.842,0.842,0,0,0-.845.84v20.253a0.845,0.845,0,0,1-1.689,0V712.908H48.529a0.837,0.837,0,0,0-.84.839v16.874a1.688,1.688,0,0,0,1.684,1.69H69.621a1.692,1.692,0,0,0,1.69-1.69V709.529ZM69.2,729.745H62.454A0.65,0.65,0,0,1,62.029,729a0.659,0.659,0,0,1,.425-0.749H69.2a0.661,0.661,0,0,1,.42.749A0.651,0.651,0,0,1,69.2,729.745Zm0-3.7H62.454a0.879,0.879,0,0,1,0-1.5H69.2A0.884,0.884,0,0,1,69.2,726.047Zm0-3.981H53.172a0.671,0.671,0,0,1-.425-0.76,0.664,0.664,0,0,1,.425-0.75H69.2a0.666,0.666,0,0,1,.42.75A0.673,0.673,0,0,1,69.2,722.066Zm0-4.1H62.45a0.865,0.865,0,0,1,0-1.485H69.2A0.867,0.867,0,0,1,69.2,717.97Zm0-4.407H62.45a0.875,0.875,0,0,1,0-1.5H69.2A0.876,0.876,0,0,1,69.2,713.563Zm-9.7,4.271H53.592a0.712,0.712,0,0,1-.713-0.708v-5.9a0.713,0.713,0,0,1,.713-0.713H59.5a0.713,0.713,0,0,1,.713.713v5.9A0.711,0.711,0,0,1,59.5,717.834Zm-0.713-5.9H54.3v4.482h4.482v-4.482Zm-5.615,12.611H59.92a0.879,0.879,0,0,1,0,1.5H53.172A0.879,0.879,0,0,1,53.172,724.542Zm0,3.712H59.92a0.659,0.659,0,0,1,.425.749,0.65,0.65,0,0,1-.425.742H53.172A0.65,0.65,0,0,1,52.747,729,0.659,0.659,0,0,1,53.172,728.254Z" transform="translate(-46 -707)"/>
</svg>
