<svg xmlns="http://www.w3.org/2000/svg" width="12" height="15" viewBox="0 0 12 15">
  <metadata><?xpacket begin="﻿" id="W5M0MpCehiHzreSzNTczkc9d"?>
<x:xmpmeta xmlns:x="adobe:ns:meta/" x:xmptk="Adobe XMP Core 5.6-c142 79.160924, 2017/07/13-01:06:39        ">
   <rdf:RDF xmlns:rdf="http://www.w3.org/1999/02/22-rdf-syntax-ns#">
      <rdf:Description rdf:about=""/>
   </rdf:RDF>
</x:xmpmeta>
                                                                                                    
                                                                                                    
                                                                                                    
                                                                                                    
                                                                                                    
                                                                                                    
                                                                                                    
                                                                                                    
                                                                                                    
                                                                                                    
                                                                                                    
                                                                                                    
                                                                                                    
                                                                                                    
                                                                                                    
                                                                                                    
                                                                                                    
                                                                                                    
                                                                                                    
                                                                                                    
                           
<?xpacket end="w"?></metadata>
<defs>
    <style>
      .cls-1 {
        fill: #555;
        fill-rule: evenodd;
      }
    </style>
  </defs>
  <path id="Forma_1" data-name="Forma 1" class="cls-1" d="M1219.34,146.958l2.62-2.521a0.52,0.52,0,0,0,0-.76,0.574,0.574,0,0,0-.79,0l-3.57,3.438a0.52,0.52,0,0,0,0,.76l3.57,3.438a0.564,0.564,0,0,0,.39.158,0.57,0.57,0,0,0,.4-0.158,0.519,0.519,0,0,0,0-.759l-2.62-2.522H1226v5.2a1.741,1.741,0,0,1-1.71,1.765h-8.58a1.741,1.741,0,0,1-1.71-1.765v-11.47a1.741,1.741,0,0,1,1.71-1.765h8.58a1.741,1.741,0,0,1,1.71,1.765v5.193h-6.66Z" transform="translate(-1214 -140)"/>
</svg>
