<?xml version="1.0" encoding="utf-8"?>
<!-- Generator: Adobe Illustrator 18.1.1, SVG Export Plug-In . SVG Version: 6.00 Build 0)  -->
<svg version="1.1" id="Слой_1" xmlns="http://www.w3.org/2000/svg" xmlns:xlink="http://www.w3.org/1999/xlink" x="0px" y="0px"
	 viewBox="0 0 512 512" enable-background="new 0 0 512 512" xml:space="preserve">
<g>
	<defs>
		<rect id="SVGID_1_" width="512" height="512"/>
	</defs>
	<clipPath id="SVGID_2_">
		<use xlink:href="#SVGID_1_"  overflow="visible"/>
	</clipPath>
	<path clip-path="url(#SVGID_2_)" d="M256,0C114.6,0,0,114.6,0,256c0,141.4,114.6,256,256,256c141.4,0,256-114.6,256-256
		C512,114.6,397.4,0,256,0 M344.5,269.6l-128,80c-2.6,1.6-5.5,2.4-8.5,2.4c-2.7,0-5.3-0.7-7.8-2c-5.1-2.8-8.2-8.2-8.2-14V176
		c0-5.8,3.2-11.2,8.2-14c5.1-2.8,11.3-2.7,16.2,0.4l128,80c4.7,2.9,7.5,8.1,7.5,13.6C352,261.5,349.2,266.6,344.5,269.6"/>
</g>
</svg>
