<svg xmlns="http://www.w3.org/2000/svg" width="35" height="27" viewBox="0 0 35 27">
  <metadata><?xpacket begin="﻿" id="W5M0MpCehiHzreSzNTczkc9d"?>
<x:xmpmeta xmlns:x="adobe:ns:meta/" x:xmptk="Adobe XMP Core 5.6-c142 79.160924, 2017/07/13-01:06:39        ">
   <rdf:RDF xmlns:rdf="http://www.w3.org/1999/02/22-rdf-syntax-ns#">
      <rdf:Description rdf:about=""/>
   </rdf:RDF>
</x:xmpmeta>
                                                                                                    
                                                                                                    
                                                                                                    
                                                                                                    
                                                                                                    
                                                                                                    
                                                                                                    
                                                                                                    
                                                                                                    
                                                                                                    
                                                                                                    
                                                                                                    
                                                                                                    
                                                                                                    
                                                                                                    
                                                                                                    
                                                                                                    
                                                                                                    
                                                                                                    
                                                                                                    
                           
<?xpacket end="w"?></metadata>
<defs>
    <style>
      .cls-1 {
        fill: #b60e6d;
        fill-rule: evenodd;
      }
    </style>
  </defs>
  <path id="Icon" class="cls-1" d="M75.969,512.541H72.888a1.044,1.044,0,0,1,0-2.087h3.082A1.044,1.044,0,0,1,75.969,512.541Zm-3.383-4.48a1.015,1.015,0,0,1-1.453,0,1.054,1.054,0,0,1,0-1.475l2.054-2.087a1.017,1.017,0,0,1,1.453,0,1.055,1.055,0,0,1,0,1.476ZM65.7,522.907a3.049,3.049,0,0,1-2.982-2.606l0-.022-0.952-.967a9.243,9.243,0,0,0-6.472-2.665H54.195v5.284a3.016,3.016,0,1,1-6.031,0v-5.444l-0.044-.016a3.071,3.071,0,0,1-1.837-1.866l-0.016-.045H46.043a4.107,4.107,0,0,1,0-8.213h0.223l0.015-.044a3.025,3.025,0,0,1,2.843-2.042h6.163a9.243,9.243,0,0,0,6.472-2.666l0.937-.951,0.015-.016,0-.022a3.013,3.013,0,0,1,6,.458v18.78A3.043,3.043,0,0,1,65.7,522.907ZM46.109,508.3H46.043a2.154,2.154,0,0,0,0,4.307h0.066V508.3Zm3.977,13.631a1.093,1.093,0,1,0,2.186,0v-5.284H50.085v5.284Zm4.241-15.718h-5.2a1.1,1.1,0,0,0-1.093,1.11v6.261a1.1,1.1,0,0,0,1.093,1.11h5.2v-8.481Zm8.355-2.816-0.109.1a11.093,11.093,0,0,1-6.27,2.673l-0.06.006v8.563l0.06,0.006a11.1,11.1,0,0,1,6.27,2.674l0.109,0.1V503.4Zm4.109-2.333a1.093,1.093,0,1,0-2.186,0v18.78a1.093,1.093,0,1,0,2.186,0v-18.78Zm5.8,13.869,2.054,2.087a1.054,1.054,0,0,1,0,1.475,1.015,1.015,0,0,1-1.453,0l-2.055-2.087a1.054,1.054,0,0,1,0-1.475A1.015,1.015,0,0,1,72.587,514.933Z" transform="translate(-42 -498)"/>
</svg>
