<svg xmlns="http://www.w3.org/2000/svg" width="1676px" height="865px">
<defs>
<linearGradient id="PSgrad_0" x1="86.603%" x2="0%" y1="50%" y2="0%">
  <stop offset="15%" stop-color="rgb(255,255,255)" stop-opacity="0" />
  <stop offset="100%" stop-color="rgb(224,236,237)" stop-opacity="1" />
  <stop offset="100%" stop-color="rgb(224,236,237)" stop-opacity="1" />
</linearGradient>

</defs>
<path fill-rule="evenodd"  fill="rgb(255, 255, 255)"
 d="M96.000,187.000 L1364.000,187.000 C1367.314,187.000 1370.000,189.686 1370.000,193.000 L1370.000,686.000 C1370.000,689.314 1367.314,692.000 1364.000,692.000 L96.000,692.000 C92.686,692.000 90.000,689.314 90.000,686.000 L90.000,193.000 C90.000,189.686 92.686,187.000 96.000,187.000 Z"/>
<path fill-rule="evenodd"  fill="none"
 d="M471.832,-0.016 L704.997,154.721 L233.155,865.013 L-0.011,710.276 L471.832,-0.016 Z"/>
<path fill="url(#PSgrad_0)"
 d="M471.832,-0.016 L704.997,154.721 L233.155,865.013 L-0.011,710.276 L471.832,-0.016 Z"/>
<path fill-rule="evenodd"  fill="none"
 d="M1442.832,-0.016 L1675.997,154.721 L1204.155,865.013 L970.989,710.276 L1442.832,-0.016 Z"/>
<path fill="url(#PSgrad_0)"
 d="M1442.832,-0.016 L1675.997,154.721 L1204.155,865.013 L970.989,710.276 L1442.832,-0.016 Z"/>
</svg>