<svg xmlns="http://www.w3.org/2000/svg" width="43" height="20" viewBox="0 0 43 20">
  <metadata><?xpacket begin="﻿" id="W5M0MpCehiHzreSzNTczkc9d"?>
<x:xmpmeta xmlns:x="adobe:ns:meta/" x:xmptk="Adobe XMP Core 5.6-c142 79.160924, 2017/07/13-01:06:39        ">
   <rdf:RDF xmlns:rdf="http://www.w3.org/1999/02/22-rdf-syntax-ns#">
      <rdf:Description rdf:about=""/>
   </rdf:RDF>
</x:xmpmeta>
                                                                                                    
                                                                                                    
                                                                                                    
                                                                                                    
                                                                                                    
                                                                                                    
                                                                                                    
                                                                                                    
                                                                                                    
                                                                                                    
                                                                                                    
                                                                                                    
                                                                                                    
                                                                                                    
                                                                                                    
                                                                                                    
                                                                                                    
                                                                                                    
                                                                                                    
                                                                                                    
                           
<?xpacket end="w"?></metadata>
<defs>
    <style>
      .cls-1 {
        fill: #b60e6d;
        fill-rule: evenodd;
      }
    </style>
  </defs>
  <path id="Icon" class="cls-1" d="M77.434,321.962a4.594,4.594,0,0,1-2.489-.728l-4.933,4.841a4.4,4.4,0,0,1,.741,2.444,4.566,4.566,0,0,1-9.131,0,4.392,4.392,0,0,1,.691-2.366L57.3,321.234a4.622,4.622,0,0,1-4.98,0l-4.933,4.841a4.4,4.4,0,0,1,.742,2.444,4.566,4.566,0,1,1-4.566-4.481,4.6,4.6,0,0,1,2.489.727l4.933-4.841a4.392,4.392,0,0,1-.741-2.443,4.566,4.566,0,0,1,9.131,0,4.392,4.392,0,0,1-.742,2.443l4.983,4.892a4.625,4.625,0,0,1,5.058-.05l4.933-4.841a4.4,4.4,0,0,1-.742-2.444A4.567,4.567,0,1,1,77.434,321.962ZM43.566,325.89a2.629,2.629,0,1,0,2.678,2.629A2.657,2.657,0,0,0,43.566,325.89Zm11.247-11.038a2.629,2.629,0,1,0,2.678,2.629A2.657,2.657,0,0,0,54.812,314.852ZM66.188,325.89a2.629,2.629,0,1,0,2.679,2.629A2.657,2.657,0,0,0,66.188,325.89Zm11.247-11.038a2.629,2.629,0,1,0,2.678,2.629A2.657,2.657,0,0,0,77.434,314.852Zm-8.947,6.8a0.957,0.957,0,0,1-1.334,0,0.914,0.914,0,0,1,0-1.31l1.919-1.884a0.958,0.958,0,0,1,1.334,0,0.914,0.914,0,0,1,0,1.31Zm-15.976,2.723a0.955,0.955,0,0,1,1.334,0,0.913,0.913,0,0,1,0,1.309l-1.919,1.884a0.954,0.954,0,0,1-1.334,0,0.913,0.913,0,0,1,0-1.309Z" transform="translate(-39 -313)"/>
</svg>
