<svg xmlns="http://www.w3.org/2000/svg" width="15" height="15" viewBox="0 0 15 15">
  <metadata><?xpacket begin="﻿" id="W5M0MpCehiHzreSzNTczkc9d"?>
<x:xmpmeta xmlns:x="adobe:ns:meta/" x:xmptk="Adobe XMP Core 5.6-c142 79.160924, 2017/07/13-01:06:39        ">
   <rdf:RDF xmlns:rdf="http://www.w3.org/1999/02/22-rdf-syntax-ns#">
      <rdf:Description rdf:about=""/>
   </rdf:RDF>
</x:xmpmeta>
                                                                                                    
                                                                                                    
                                                                                                    
                                                                                                    
                                                                                                    
                                                                                                    
                                                                                                    
                                                                                                    
                                                                                                    
                                                                                                    
                                                                                                    
                                                                                                    
                                                                                                    
                                                                                                    
                                                                                                    
                                                                                                    
                                                                                                    
                                                                                                    
                                                                                                    
                                                                                                    
                           
<?xpacket end="w"?></metadata>
<defs>
    <style>
      .cls-1 {
        fill: #555;
        fill-rule: evenodd;
      }
    </style>
  </defs>
  <path id="Icon" class="cls-1" d="M1226.95,92.667a0.485,0.485,0,0,0-.48-0.369,1.656,1.656,0,0,1-1.13-2.882,0.413,0.413,0,0,0,.04-0.566,7.225,7.225,0,0,0-1.19-1.2,0.418,0.418,0,0,0-.57.046,1.725,1.725,0,0,1-1.87.42,1.672,1.672,0,0,1-1.01-1.628,0.42,0.42,0,0,0-.37-0.438,7.426,7.426,0,0,0-1.68,0,0.429,0.429,0,0,0-.38.429,1.654,1.654,0,0,1-1.02,1.6,1.737,1.737,0,0,1-1.86-.423,0.423,0.423,0,0,0-.57-0.048,8.052,8.052,0,0,0-1.21,1.2,0.409,0.409,0,0,0,.05.57,1.667,1.667,0,0,1,.42,1.871,1.74,1.74,0,0,1-1.64,1.014,0.412,0.412,0,0,0-.43.368,6.953,6.953,0,0,0,0,1.706,0.487,0.487,0,0,0,.49.369,1.641,1.641,0,0,1,1.54,1.028,1.66,1.66,0,0,1-.42,1.855,0.412,0.412,0,0,0-.04.565,7.824,7.824,0,0,0,1.18,1.2,0.414,0.414,0,0,0,.57-0.045,1.73,1.73,0,0,1,1.87-.421,1.664,1.664,0,0,1,1.02,1.628,0.419,0.419,0,0,0,.37.438,7.385,7.385,0,0,0,.86.05,7.141,7.141,0,0,0,.82-0.046,0.428,0.428,0,0,0,.38-0.429,1.653,1.653,0,0,1,1.02-1.6,1.735,1.735,0,0,1,1.86.423,0.424,0.424,0,0,0,.57.047,7.954,7.954,0,0,0,1.21-1.2,0.409,0.409,0,0,0-.05-0.57,1.667,1.667,0,0,1-.42-1.871,1.685,1.685,0,0,1,1.54-1.017l0.09,0a0.418,0.418,0,0,0,.44-0.368A6.953,6.953,0,0,0,1226.95,92.667Zm-7.45,3.509a2.676,2.676,0,1,1,2.67-2.676A2.679,2.679,0,0,1,1219.5,96.176Z" transform="translate(-1212 -86)"/>
</svg>
