<?xml version="1.0" encoding="utf-8"?>
<!-- Generator: Adobe Illustrator 22.1.0, SVG Export Plug-In . SVG Version: 6.00 Build 0)  -->
<svg version="1.1" id="Слой_1" xmlns="http://www.w3.org/2000/svg" xmlns:xlink="http://www.w3.org/1999/xlink" x="0px" y="0px"
	 viewBox="0 0 270 270" style="enable-background:new 0 0 270 270;" xml:space="preserve">
<style type="text/css">
	.st0{fill:#FFFFFF;}
</style>
<path class="st0" d="M259.2,154.7c1-6.4,1.5-12.9,1.5-19.5c0-69-56-125-125-125c-6.6,0-13.1,0.5-19.5,1.5
	C104.7,4.6,91.1,0.5,76.5,0.5C34.8,0.5,1,34.3,1,76c0,14.6,4.1,28.1,11.2,39.7c-1,6.4-1.5,12.9-1.5,19.5c0,69,56,125,125,125
	c6.6,0,13.2-0.5,19.5-1.5c11.5,7.1,25.1,11.2,39.7,11.2c41.7,0,75.5-33.8,75.5-75.5C270.4,179.8,266.3,166.2,259.2,154.7z
	 M195,192.1c-5.3,7.6-13.1,13.6-23.2,17.8c-10.2,4.3-22.2,6.4-36.1,6.4c-16.6,0-30.4-2.9-41.3-8.8c-7.7-4.2-14-9.9-18.8-16.9
	c-4.8-7-7.3-13.9-7.3-20.7c0-4,1.5-7.4,4.5-10.2c3-2.8,6.8-4.3,11.3-4.3c3.7,0,6.9,1.1,9.5,3.3c2.6,2.2,4.7,5.4,6.5,9.7
	c2.1,4.9,4.4,9,6.9,12.3c2.4,3.2,5.8,5.9,10.3,8.1c4.4,2.1,10.2,3.2,17.5,3.2c10,0,18.1-2.2,24.2-6.4c6.2-4.3,9.2-9.5,9.2-15.9
	c0-5-1.6-9.1-4.9-12.2c-3.3-3.2-7.6-5.6-13-7.3c-5.4-1.7-12.5-3.5-21.5-5.4c-12.1-2.6-22.2-5.7-30.4-9.2
	c-8.2-3.5-14.7-8.4-19.6-14.5c-4.8-6.2-7.3-13.8-7.3-22.9c0-8.7,2.6-16.4,7.7-23.2c5.1-6.8,12.5-11.9,22.1-15.6
	c9.6-3.6,20.9-5.4,33.9-5.4c10.4,0,19.3,1.2,26.9,3.6c7.6,2.4,13.9,5.6,18.9,9.6c5,4,8.7,8.2,11,12.6c2.3,4.4,3.5,8.7,3.5,12.9
	c0,3.9-1.5,7.4-4.5,10.6c-2.9,3.1-6.7,4.7-11.1,4.7c-4,0-7.1-0.9-9.3-2.9c-2.1-1.9-4.3-4.9-6.7-9c-3-5.8-6.6-10.3-10.9-13.6
	c-4.1-3.2-10.9-4.8-20.3-4.8c-8.7,0-15.7,1.8-20.9,5.3c-5.3,3.5-7.8,7.6-7.8,12.4c0,3,0.9,5.5,2.6,7.7c1.8,2.2,4.2,4.1,7.4,5.7
	c3.2,1.6,6.4,2.9,9.6,3.8c3.3,0.9,8.7,2.3,16.2,4c9.5,2,18.1,4.3,25.8,6.8c7.7,2.5,14.3,5.5,19.7,9.1c5.5,3.6,9.8,8.1,12.8,13.6
	c3.1,5.5,4.6,12.3,4.6,20.2C203,175.9,200.3,184.5,195,192.1z"/>
</svg>
