<svg xmlns="http://www.w3.org/2000/svg" width="16px" height="13px">
<path fill-rule="evenodd"  fill="rgb(255, 255, 255)"
 d="M15.052,1.542 C14.501,1.802 13.908,1.979 13.286,2.058 C13.921,1.652 14.408,1.009 14.639,0.243 C14.044,0.618 13.386,0.892 12.686,1.039 C12.125,0.401 11.326,0.003 10.441,0.003 C8.742,0.003 7.366,1.473 7.366,3.284 C7.366,3.541 7.393,3.792 7.446,4.032 C4.891,3.895 2.624,2.589 1.108,0.603 C0.843,1.088 0.692,1.652 0.692,2.253 C0.692,3.392 1.235,4.396 2.059,4.984 C1.555,4.967 1.081,4.819 0.666,4.573 C0.666,4.588 0.666,4.601 0.666,4.615 C0.666,6.204 1.726,7.530 3.133,7.832 C2.875,7.907 2.603,7.947 2.323,7.947 C2.125,7.947 1.932,7.927 1.744,7.889 C2.136,9.192 3.272,10.141 4.617,10.167 C3.565,11.048 2.239,11.571 0.798,11.571 C0.549,11.571 0.304,11.557 0.065,11.526 C1.425,12.457 3.041,13.000 4.777,13.000 C10.433,13.000 13.527,8.000 13.527,3.664 C13.527,3.522 13.524,3.381 13.518,3.240 C14.119,2.777 14.640,2.199 15.052,1.542 L15.052,1.542 Z"/>
</svg>