<svg 
 xmlns="http://www.w3.org/2000/svg"
 width="18px" height="10px">
<path fill-rule="evenodd" d="M8.466,9.871 L9.482,9.871 C9.482,9.871 9.788,9.837 9.944,9.664 C10.088,9.505 10.084,9.208 10.084,9.208 C10.084,9.208 10.064,7.814 10.697,7.609 C11.321,7.406 12.120,8.955 12.969,9.551 C13.611,10.003 14.099,9.903 14.099,9.903 L16.366,9.871 C16.366,9.871 17.553,9.796 16.990,8.842 C16.944,8.763 16.662,8.135 15.303,6.845 C13.881,5.495 14.072,5.713 15.785,3.376 C16.829,1.954 17.246,1.085 17.116,0.713 C16.991,0.358 16.225,0.453 16.225,0.453 L13.669,0.469 C13.669,0.469 13.480,0.442 13.340,0.528 C13.202,0.612 13.115,0.809 13.115,0.809 C13.115,0.809 12.710,1.910 12.171,2.845 C11.033,4.822 10.579,4.926 10.393,4.804 C9.960,4.517 10.068,3.654 10.068,3.041 C10.068,1.127 10.352,0.328 9.516,0.122 C9.238,0.053 9.033,0.008 8.324,0.001 C7.412,-0.009 6.641,0.004 6.204,0.222 C5.913,0.367 5.689,0.692 5.825,0.711 C5.994,0.734 6.377,0.817 6.580,1.099 C6.841,1.463 6.832,2.281 6.832,2.281 C6.832,2.281 6.983,4.535 6.481,4.815 C6.136,5.008 5.664,4.615 4.650,2.822 C4.131,1.904 3.739,0.889 3.739,0.889 C3.739,0.889 3.663,0.700 3.528,0.599 C3.364,0.476 3.135,0.437 3.135,0.437 L0.709,0.453 C0.709,0.453 0.344,0.463 0.210,0.625 C0.092,0.769 0.201,1.068 0.201,1.068 C0.201,1.068 2.101,5.616 4.252,7.907 C6.225,10.009 8.466,9.871 8.466,9.871 L8.466,9.871 Z"/>
</svg>