<?xml version="1.0" encoding="utf-8"?>
<!-- Generator: Adobe Illustrator 21.0.0, SVG Export Plug-In . SVG Version: 6.00 Build 0)  -->
<svg version="1.1" id="Layer_3" xmlns="http://www.w3.org/2000/svg" xmlns:xlink="http://www.w3.org/1999/xlink" x="0px" y="0px"
	 viewBox="0 0 1520 456" style="enable-background:new 0 0 1520 456;" xml:space="preserve">
<style type="text/css">
	.st0{fill:#E61C51;}
	.st1{fill:#DE1132;}
	.st2{fill:#EA2F69;}
</style>
<polygon class="st0" points="6.9,113.5 6.9,23.8 96.6,23.8 "/>
<polygon class="st1" points="6.9,113.5 96.6,113.5 96.6,23.8 "/>
<polygon class="st0" points="6.9,220.4 6.9,150.5 96.6,150.5 "/>
<polygon class="st0" points="6.9,220.4 95.9,316.9 96.6,150.5 "/>
<polygon class="st1" points="6.9,220.4 95.9,316.9 6.9,415.7 "/>
<polygon class="st1" points="95.9,415.7 95.9,316.9 6.9,415.7 "/>
<polygon class="st1" points="163.8,107.7 163.8,23.7 203.8,23.7 "/>
<polygon class="st1" points="163.8,107.7 224.5,107.7 203.8,23.7 "/>
<polygon class="st0" points="237.9,23.7 224.5,107.7 203.8,23.7 "/>
<polygon class="st0" points="237.9,23.7 224.5,107.7 272.3,107 "/>
<polygon class="st0" points="237.9,23.7 323.4,23.7 272.3,107 "/>
<polygon class="st1" points="326.3,108.1 323.4,23.7 272.3,107 "/>
<polygon class="st1" points="326.3,108.1 323.4,23.7 359.3,29.3 "/>
<polygon class="st1" points="326.3,108.1 350,119.9 359.3,29.3 "/>
<polygon class="st1" points="401.2,50.3 350,119.9 359.3,29.3 "/>
<polygon class="st1" points="401.2,50.3 350,119.9 428.4,77.5 "/>
<polygon class="st1" points="360.9,135.9 350,119.9 428.4,77.5 "/>
<polygon class="st1" points="360.9,135.9 447.5,113.3 428.4,77.5 "/>
<polygon class="st1" points="360.9,135.9 447.5,113.3 364.7,149.6 "/>
<polygon class="st1" points="454.4,144.5 447.5,113.3 364.7,149.6 "/>
<polygon class="st0" points="454.4,144.5 455,155.7 364.7,149.6 "/>
<polygon class="st0" points="419.2,204.2 455,155.7 364.7,149.6 "/>
<polygon class="st1" points="419.2,204.2 455,155.7 447.5,199.7 "/>
<polygon class="st1" points="419.2,204.2 419.2,244.9 447.5,199.7 "/>
<polygon class="st1" points="419.2,204.2 419.2,244.9 380.8,255.2 "/>
<polygon class="st1" points="382.8,271.8 419.2,244.9 380.8,255.2 "/>
<polygon class="st1" points="382.8,271.8 322.5,332.5 380.8,255.2 "/>
<polygon class="st1" points="382.8,271.8 322.5,332.5 415.9,328.8 "/>
<polygon class="st1" points="345.7,373.6 322.5,332.5 415.9,328.8 "/>
<polygon class="st1" points="345.7,373.6 439,368.7 415.9,328.8 "/>
<polygon class="st0" points="345.7,373.6 439,368.7 369.9,415.8 "/>
<polygon class="st0" points="465.4,414.3 439,368.7 369.9,415.8 "/>
<polygon class="st0" points="419.2,204.2 361.6,179 364.7,149.6 "/>
<polygon class="st0" points="419.2,204.2 361.6,179 380.8,255.2 "/>
<polygon class="st0" points="346.2,199.7 361.6,179 380.8,255.2 "/>
<polygon class="st0" points="346.2,199.7 322.5,332.5 380.8,255.2 "/>
<polygon class="st0" points="346.2,199.7 322.5,332.5 320.7,208.5 "/>
<polygon class="st0" points="296,287 322.5,332.5 320.7,208.5 "/>
<polygon class="st0" points="296,287 253.4,208.5 253.4,287 "/>
<polygon class="st0" points="296,287 253.4,208.5 320.7,208.5 "/>
<polygon class="st0" points="200.8,207.7 253.4,208.5 253.4,287 "/>
<polygon class="st0" points="200.8,207.7 163.8,257.3 253.4,287 "/>
<polygon class="st0" points="163.8,386.8 163.8,257.3 253.4,287 "/>
<polygon class="st0" points="163.8,386.8 253.4,368.5 253.4,287 "/>
<polygon class="st1" points="163.8,386.8 253.4,368.5 163.8,415.8 "/>
<polygon class="st1" points="253.4,414.6 253.4,368.5 163.8,415.8 "/>
<polygon class="st1" points="200.8,207.7 163.8,257.3 163.8,207.7 "/>
<polygon class="st0" points="669.5,331.6 687.9,308.7 778.9,334.3 "/>
<polygon class="st0" points="778.9,285.3 687.9,308.7 778.9,334.3 "/>
<polygon class="st0" points="778.9,285.3 687.9,308.7 694.9,278.3 "/>
<polygon class="st0" points="778.9,285.3 778.9,238.6 694.9,278.3 "/>
<polygon class="st0" points="669.5,331.6 694.9,389.5 778.9,334.3 "/>
<polygon class="st1" points="730,415.8 778.9,415.8 778.9,334.3 "/>
<polygon class="st0" points="730,415.8 694.9,389.5 778.9,334.3 "/>
<polygon class="st0" points="730,415.8 694.9,389.5 694.9,415.8 "/>
<polygon class="st0" points="669.5,331.6 694.9,389.5 667.8,410.9 "/>
<polygon class="st0" points="669.5,331.6 641.6,343 667.8,410.9 "/>
<polygon class="st1" points="624.4,423.1 641.6,343 667.8,410.9 "/>
<polygon class="st1" points="624.4,423.1 641.6,343 610.3,342 "/>
<polygon class="st1" points="624.4,423.1 585.9,421 610.3,342 "/>
<polygon class="st1" points="542.5,402.7 585.9,421 610.3,342 "/>
<polygon class="st1" points="542.5,402.7 584.3,328.8 610.3,342 "/>
<polygon class="st0" points="542.5,402.7 584.3,328.8 513.4,376.7 "/>
<polygon class="st0" points="568.8,308.7 584.3,328.8 513.4,376.7 "/>
<polygon class="st0" points="568.8,308.7 490.9,342 513.4,376.7 "/>
<polygon class="st0" points="568.8,308.7 490.9,342 562,281.3 "/>
<polygon class="st0" points="479,296.6 490.9,342 562,281.3 "/>
<polygon class="st1" points="479,296.6 479,255.2 562,281.3 "/>
<polygon class="st1" points="564.3,253.4 479,255.2 562,281.3 "/>
<polygon class="st1" points="564.3,253.4 479,255.2 494,204.2 "/>
<polygon class="st1" points="564.3,253.4 524.6,163 494,204.2 "/>
<polygon class="st1" points="564.3,253.4 524.6,163 577.2,229.7 "/>
<polygon class="st1" points="564.3,137.3 524.6,163 577.2,229.7 "/>
<polygon class="st1" points="564.3,137.3 594.6,215.7 577.2,229.7 "/>
<polygon class="st0" points="564.3,137.3 594.6,215.7 617.5,208.2 "/>
<polygon class="st0" points="564.3,137.3 605.2,128 617.5,208.2 "/>
<polygon class="st0" points="648.3,132.8 605.2,128 617.5,208.2 "/>
<polygon class="st0" points="648.3,132.8 641.6,208.5 617.5,208.2 "/>
<polygon class="st0" points="648.3,132.8 641.6,208.5 674.3,144.5 "/>
<polygon class="st0" points="667.8,219.4 641.6,208.5 674.3,144.5 "/>
<polygon class="st0" points="667.8,219.4 694.9,162 674.3,144.5 "/>
<polygon class="st0" points="667.8,219.4 694.9,162 691.6,253.4 "/>
<polygon class="st0" points="778.9,135.7 694.9,162 691.6,253.4 "/>
<polygon class="st0" points="778.9,135.7 778.9,238.6 691.6,253.4 "/>
<polygon class="st0" points="694.9,278.3 778.9,238.6 691.6,253.4 "/>
<polygon class="st0" points="778.9,135.7 694.9,162 694.9,135.7 "/>
<polygon class="st0" points="840.5,135.7 924.6,135.7 840.5,173.4 "/>
<polygon class="st0" points="924.6,236.8 924.6,135.7 840.5,173.4 "/>
<polygon class="st1" points="924.6,236.8 840.5,287.6 840.5,173.4 "/>
<polygon class="st1" points="924.6,236.8 840.5,287.6 924.6,271.6 "/>
<polygon class="st0" points="924.6,319.3 840.5,287.6 924.6,271.6 "/>
<polygon class="st0" points="924.6,319.3 840.5,287.6 857.5,415.8 "/>
<polygon class="st1" points="924.6,319.3 924.6,415.8 857.5,415.8 "/>
<polygon class="st0" points="840.5,415.8 840.5,287.6 857.5,415.8 "/>
<polygon class="st1" points="1036.6,315.5 963.8,357 986,388.5 "/>
<polygon class="st1" points="1036.6,315.5 1048.2,335.1 986,388.5 "/>
<polygon class="st1" points="1023.3,412.8 1048.2,335.1 986,388.5 "/>
<polygon class="st0" points="1023.3,412.8 1048.2,335.1 1060.3,343.7 "/>
<polygon class="st0" points="1023.3,412.8 1057.1,421.6 1060.3,343.7 "/>
<polygon class="st0" points="1076.2,348.1 1057.1,421.6 1060.3,343.7 "/>
<polygon class="st0" points="1076.2,348.1 1057.1,421.6 1091,423.6 "/>
<polygon class="st0" points="1076.2,348.1 1097.3,347.5 1091,423.6 "/>
<polygon class="st0" points="1123.9,419.4 1097.3,347.5 1091,423.6 "/>
<polygon class="st0" points="1123.9,419.4 1097.3,347.5 1107.6,343.7 "/>
<polygon class="st0" points="1123.9,419.4 1155.5,407.8 1107.6,343.7 "/>
<polygon class="st0" points="1181.8,388.5 1155.5,407.8 1107.6,343.7 "/>
<polygon class="st0" points="1181.8,388.5 1112.9,338.1 1107.6,343.7 "/>
<polygon class="st0" points="1181.8,388.5 1112.9,338.1 1192.2,371.1 "/>
<polygon class="st0" points="1114.4,333 1112.9,338.1 1192.2,371.1 "/>
<polygon class="st0" points="1114.4,333 1199.5,348.1 1192.2,371.1 "/>
<polygon class="st0" points="1114.4,333 1199.5,348.1 1200.8,322 "/>
<polygon class="st0" points="1114.4,333 1112.9,325.9 1200.8,322 "/>
<polygon class="st0" points="1194.8,298.8 1112.9,325.9 1200.8,322 "/>
<polygon class="st0" points="1194.8,298.8 1112.9,325.9 1183.7,280.1 "/>
<polygon class="st0" points="1107.6,320.9 1112.9,325.9 1183.7,280.1 "/>
<polygon class="st0" points="1107.6,320.9 1167.2,265 1183.7,280.1 "/>
<polygon class="st0" points="1107.6,320.9 1167.2,265 1142.3,251.7 "/>
<polygon class="st0" points="1107.6,320.9 1092.3,314.2 1142.3,251.7 "/>
<polygon class="st0" points="1115.7,242.8 1092.3,314.2 1142.3,251.7 "/>
<polygon class="st0" points="1115.7,242.8 1092.3,314.2 1058,304.3 "/>
<polygon class="st0" points="1115.7,242.8 1076.2,231.1 1058,304.3 "/>
<polygon class="st0" points="1027.3,292.9 1076.2,231.1 1058,304.3 "/>
<polygon class="st0" points="1027.3,292.9 1076.2,231.1 1067.9,226.5 "/>
<polygon class="st0" points="1027.3,292.9 1008.9,282.4 1067.9,226.5 "/>
<polygon class="st0" points="994,269 1008.9,282.4 1067.9,226.5 "/>
<polygon class="st0" points="994,269 983.4,252.6 1067.9,226.5 "/>
<polygon class="st0" points="1063.4,220.4 983.4,252.6 1067.9,226.5 "/>
<polygon class="st0" points="1063.4,220.4 983.4,252.6 1023.3,207.4 "/>
<polygon class="st1" points="977.6,232.9 983.4,252.6 1023.3,207.4 "/>
<polygon class="st1" points="977.6,232.9 977.6,205.8 1023.3,207.4 "/>
<polygon class="st1" points="987.7,175.7 977.6,205.8 1023.3,207.4 "/>
<polygon class="st1" points="987.7,175.7 1038.2,189.8 1023.3,207.4 "/>
<polygon class="st1" points="987.7,175.7 1038.2,189.8 1005.3,154.5 "/>
<polygon class="st1" points="1025.7,141.1 1038.2,189.8 1005.3,154.5 "/>
<polygon class="st1" points="1025.7,141.1 1038.2,189.8 1053.9,131.3 "/>
<polygon class="st1" points="1066.1,158.9 1038.2,189.8 1053.9,131.3 "/>
<polygon class="st1" points="1066.1,158.9 1076.2,128.2 1053.9,131.3 "/>
<polygon class="st1" points="1066.1,158.9 1076.2,128.2 1092.3,128.2 "/>
<polygon class="st0" points="1063.4,220.4 1063.4,213.9 1023.3,207.4 "/>
<polygon class="st0" points="1038.2,189.8 1063.4,213.9 1023.3,207.4 "/>
<polygon class="st0" points="1038.2,189.8 1063.4,213.9 1066.1,208.6 "/>
<polygon class="st0" points="1038.2,189.8 1066.1,158.9 1066.1,208.6 "/>
<polygon class="st0" points="1076.2,203 1066.1,158.9 1066.1,208.6 "/>
<polygon class="st0" points="1076.2,203 1066.1,158.9 1092.3,128.2 "/>
<polygon class="st0" points="1076.2,203 1092.3,202.1 1092.3,128.2 "/>
<polygon class="st0" points="1114.1,130.7 1092.3,202.1 1092.3,128.2 "/>
<polygon class="st1" points="1114.1,130.7 1092.3,202.1 1105.3,206.3 "/>
<polygon class="st1" points="1114.1,130.7 1141.2,139.1 1105.3,206.3 "/>
<polygon class="st1" points="1168.4,155.8 1141.2,139.1 1105.3,206.3 "/>
<polygon class="st1" points="1168.4,155.8 1115.7,214.4 1105.3,206.3 "/>
<polygon class="st1" points="1168.4,155.8 1115.7,214.4 1184.8,172.2 "/>
<polygon class="st1" points="1124,226.5 1115.7,214.4 1184.8,172.2 "/>
<polygon class="st1" points="1124,226.5 1195.7,187.8 1184.8,172.2 "/>
<polygon class="st1" points="1503.3,366 1461.7,342.1 1489.6,382.2 "/>
<polygon class="st1" points="1450.2,369.6 1461.7,342.1 1489.6,382.2 "/>
<polygon class="st1" points="1450.2,369.6 1469.3,399 1489.6,382.2 "/>
<polygon class="st1" points="1450.2,369.6 1469.3,399 1450.2,409.7 "/>
<polygon class="st1" points="1450.2,369.6 1430.3,416.9 1450.2,409.7 "/>
<polygon class="st0" points="1450.2,369.6 1461.7,342.1 1436.1,327.3 "/>
<polygon class="st0" points="1450.2,369.6 1424.8,336.7 1436.1,327.3 "/>
<polygon class="st0" points="1450.2,369.6 1424.8,336.7 1430.3,416.9 "/>
<polygon class="st0" points="1408.3,345.1 1424.8,336.7 1430.3,416.9 "/>
<polygon class="st0" points="1408.3,345.1 1398.8,422.9 1430.3,416.9 "/>
<polygon class="st0" points="1408.3,345.1 1398.8,422.9 1387.2,348.5 "/>
<polygon class="st0" points="1368,422.9 1398.8,422.9 1387.2,348.5 "/>
<polygon class="st0" points="1368,422.9 1369.2,347.9 1387.2,348.5 "/>
<polygon class="st0" points="1368,422.9 1369.2,347.9 1337.9,418.8 "/>
<polygon class="st0" points="1347.5,342.7 1369.2,347.9 1337.9,418.8 "/>
<polygon class="st0" points="1347.5,342.7 1308.3,408.7 1337.9,418.8 "/>
<polygon class="st0" points="1347.5,342.7 1308.3,408.7 1330.5,332.3 "/>
<polygon class="st0" points="1277,389.6 1308.3,408.7 1330.5,332.3 "/>
<polygon class="st0" points="1277,389.6 1318.4,316.5 1330.5,332.3 "/>
<polygon class="st0" points="1277,389.6 1318.4,316.5 1252.3,362.6 "/>
<polygon class="st1" points="1248.4,356.8 1318.4,316.5 1252.3,362.6 "/>
<polygon class="st1" points="1248.4,356.8 1318.4,316.5 1290.4,256.5 "/>
<polygon class="st0" points="1248.4,356.8 1233.9,325.9 1290.4,256.5 "/>
<polygon class="st0" points="1226.8,292.9 1233.9,325.9 1290.4,256.5 "/>
<polygon class="st0" points="1226.8,292.9 1226.8,258.7 1290.4,256.5 "/>
<polygon class="st0" points="1234.3,224.3 1226.8,258.7 1290.4,256.5 "/>
<polygon class="st0" points="1234.3,224.3 1295.2,245.2 1290.4,256.5 "/>
<polygon class="st0" points="1234.3,224.3 1295.2,245.2 1252.6,188.3 "/>
<polygon class="st0" points="1315.1,197.7 1295.2,245.2 1252.6,188.3 "/>
<polygon class="st0" points="1315.1,197.7 1276.3,162.3 1252.6,188.3 "/>
<polygon class="st0" points="1315.1,197.7 1276.3,162.3 1305.1,143.2 "/>
<polygon class="st0" points="1315.1,197.7 1343.1,130.7 1305.1,143.2 "/>
<polygon class="st1" points="1418.3,246.5 1315.1,309.4 1290.4,256.5 "/>
<polygon class="st1" points="1418.3,246.5 1295.2,245.2 1290.4,256.5 "/>
<polygon class="st1" points="1418.3,246.5 1315.1,309.4 1330.5,309.4 "/>
<polygon class="st1" points="1313.7,245.4 1295.2,245.2 1315.1,197.7 "/>
<polygon class="st1" points="1313.7,245.4 1323.4,225.3 1315.1,197.7 "/>
<polygon class="st1" points="1334,214.4 1323.4,225.3 1315.1,197.7 "/>
<polygon class="st1" points="1334,214.4 1347.5,207 1315.1,197.7 "/>
<polygon class="st1" points="1343.1,130.7 1347.5,207 1315.1,197.7 "/>
<polygon class="st1" points="1343.1,130.7 1347.5,207 1365,202.9 "/>
<polygon class="st1" points="1343.1,130.7 1375,127.9 1365,202.9 "/>
<polygon class="st1" points="1383.1,202.9 1375,127.9 1365,202.9 "/>
<polygon class="st1" points="1383.1,202.9 1375,127.9 1404.9,130.8 "/>
<polygon class="st1" points="1383.1,202.9 1399.8,207 1404.9,130.8 "/>
<polygon class="st1" points="1440.5,143.2 1399.8,207 1404.9,130.8 "/>
<polygon class="st1" points="1440.5,143.2 1399.8,207 1407.1,210.5 "/>
<polygon class="st1" points="1440.5,143.2 1465.7,159.8 1407.1,210.5 "/>
<polygon class="st1" points="1420.6,221.6 1465.7,159.8 1407.1,210.5 "/>
<polygon class="st1" points="1420.6,221.6 1465.7,159.8 1484.2,178.5 "/>
<polygon class="st1" points="1420.6,221.6 1430.6,237.9 1484.2,178.5 "/>
<polygon class="st1" points="1494.5,193 1430.6,237.9 1484.2,178.5 "/>
<polygon class="st2" points="1494.5,193 1430.6,237.9 1433.8,246.6 "/>
<polygon class="st2" points="1494.5,193 1509.9,227 1433.8,246.6 "/>
<polygon class="st2" points="1475.4,309.4 1509.9,227 1433.8,246.6 "/>
<polygon class="st2" points="1475.4,309.4 1330.5,309.4 1433.8,246.6 "/>
<polygon class="st2" points="1418.3,246.5 1330.5,309.4 1433.8,246.6 "/>
<polygon class="st0" points="1475.4,309.4 1509.9,227 1517.3,269.5 "/>
<polygon class="st0" points="1475.4,309.4 1513.9,309.4 1517.3,269.5 "/>
</svg>
