<?xml version="1.0" encoding="utf-8"?>
<!-- Generator: Adobe Illustrator 22.1.0, SVG Export Plug-In . SVG Version: 6.00 Build 0)  -->
<svg version="1.1" id="Слой_1" xmlns="http://www.w3.org/2000/svg" xmlns:xlink="http://www.w3.org/1999/xlink" x="0px" y="0px"
	 viewBox="0 0 99.2 28.3" style="enable-background:new 0 0 99.2 28.3;" xml:space="preserve">
<style type="text/css">
	.st0{fill:#C52850;}
	.st1{opacity:0.8;fill:#C52850;}
	.st2{fill:#BE1E34;}
	.st3{opacity:0.9;fill:#C52850;}
	.st4{opacity:0.6;fill:#C52850;}
</style>
<g>
	<polygon class="st0" points="0.8,13.8 6.6,20.1 6.6,9.2 0.8,9.2 	"/>
	<polygon class="st1" points="0.8,13.8 6.6,20.1 6.6,9.2 0.8,9.2 	"/>
	<polygon class="st2" points="0.8,26.4 6.6,26.4 6.6,20.1 0.8,13.8 	"/>
	<polygon class="st0" points="0.8,6.8 6.6,1.7 6.6,1.6 0.8,6.6 	"/>
	<polygon class="st0" points="0.8,6.6 6.6,1.6 6.6,1 0.8,1 	"/>
	<polygon class="st0" points="0.8,6.8 6.6,6.8 6.6,1.7 0.8,6.8 	"/>
	<polygon class="st2" points="0.8,6.8 6.6,6.8 6.6,1.7 0.8,6.8 	"/>
	<polygon class="st0" points="11,24.5 11,24.5 11.7,24.4 	"/>
	<polygon class="st0" points="21.3,2 21.3,2.1 18,6.5 18,6.5 21.3,2.1 	"/>
	<polygon class="st0" points="24.8,16.3 24.8,16.4 21.3,21 21.3,21.1 24.8,16.4 	"/>
	<polygon class="st0" points="22.8,23.7 22.8,23.7 26.4,23.5 	"/>
	<path class="st0" d="M21.3,2l0.7-1c-0.3,0-0.6,0-0.9,0h-7.6L14,2.7l0.9,3.8H18L21.3,2L21.3,2z"/>
	<path class="st1" d="M21.3,2l0.7-1c-0.3,0-0.6,0-0.9,0h-7.6L14,2.7l0.9,3.8H18L21.3,2L21.3,2z"/>
	<path class="st0" d="M22.1,1.1l-0.7,1l-0.1,0.1L18,6.5H19v0h2.2c1.4,0,2.6,1.1,2.9,2.7l5.8-0.3C29.4,4.7,26.2,1.5,22.1,1.1z"/>
	<path class="st2" d="M22.1,1.1l-0.7,1l-0.1,0.1L18,6.5H19v0h2.2c1.4,0,2.6,1.1,2.9,2.7l5.8-0.3C29.4,4.7,26.2,1.5,22.1,1.1z"/>
	<polygon class="st0" points="22.1,1.1 22,1.1 21.3,2 	"/>
	<polygon class="st1" points="22.1,1.1 22,1.1 21.3,2 	"/>
	<polygon class="st3" points="22.1,1.1 22,1.1 21.3,2 	"/>
	<path class="st0" d="M17.8,18.1h1.8l1.7,3l3.5-4.7l0.1-0.1l5-6.7c0-0.2,0-0.5,0-0.7L24,9.2c0,0.2,0,0.4,0,0.6
		c0,1.8-1.3,3.3-2.9,3.3h-4.4v-0.1h-0.3l1,4L17.8,18.1z"/>
	<path class="st0" d="M24.8,16.4l-3.5,4.7l1.5,2.6l3.7-0.2l0.1,0l2.3-0.1l-3.6-6.3c2.8-1.4,4.7-4.2,4.7-7.4c0,0,0-0.1,0-0.1
		L24.8,16.4L24.8,16.4z"/>
	<path class="st2" d="M24.8,16.4l-3.5,4.7l1.5,2.6l3.7-0.2l0.1,0l2.3-0.1l-3.6-6.3c2.8-1.4,4.7-4.2,4.7-7.4c0,0,0-0.1,0-0.1
		L24.8,16.4L24.8,16.4z"/>
	<path class="st0" d="M29.9,9.6C29.9,9.6,29.8,9.6,29.9,9.6l-5,6.7L29.9,9.6z"/>
	<path class="st2" d="M29.9,9.6C29.9,9.6,29.8,9.6,29.9,9.6l-5,6.7L29.9,9.6z"/>
	<polygon class="st0" points="26.4,23.5 22.8,23.7 24.3,26.4 30.6,26.4 28.8,23.4 26.5,23.5 	"/>
	<polygon class="st2" points="13.6,1 11,1 11,6.5 14.9,6.5 14,2.7 	"/>
	<polygon class="st2" points="11,12.9 11,16.2 13.4,12.9 	"/>
	<polygon class="st0" points="11.9,24.4 16.8,24.1 16.8,18.1 17.8,18.1 17.5,16.9 16.5,12.9 13.4,12.9 11,16.2 11,24.5 11.7,24.4 	
		"/>
	<polygon class="st2" points="16.8,24.1 11.9,24.4 11.7,24.4 11,24.5 11,26.4 16.8,26.4 	"/>
	<polygon class="st0" points="35.7,25.2 35.7,25.2 35.5,25.6 35.5,25.6 35.7,25.2 	"/>
	<polygon class="st0" points="31.4,18.7 31.4,18.7 32.9,18.4 	"/>
	<polygon class="st0" points="50.8,26.2 50.5,26.4 50.8,26.4 	"/>
	<polygon class="st0" points="49.5,23.3 50.8,21 50.8,21 50,22.3 	"/>
	<path class="st0" d="M42.4,13.1l2.2-3.9c0,0,0,0,0,0L42.4,13.1C42.3,13.1,42.4,13.1,42.4,13.1z"/>
	<path class="st0" d="M38.9,13.5c0.6-0.3,1.4-0.5,2.2-0.5c0.5,0,0.9,0.1,1.3,0.2l2.2-3.9c-1.1-0.9-2.7-1.4-4.6-1.4
		c-1.1,0-2.1,0.2-3,0.6l0.7,1.9L38.9,13.5z"/>
	<path class="st0" d="M45.2,15.9l2.2-0.4l3.4-0.6V8.3h-5.4V10c-0.2-0.3-0.5-0.5-0.8-0.8l-2.2,3.9C43.7,13.5,44.8,14.5,45.2,15.9z"/>
	<path class="st0" d="M50,22.3l0.8-1.4v-6.1l-3.4,0.6l-2.2,0.4c0.1,0.4,0.2,0.9,0.2,1.4c0,2.3-1.4,3.9-3.3,4.3l0.9,2.3l0.8,2.1
		c0.6-0.4,1.2-0.8,1.6-1.3v1.7h2.3l1.8-3.1L50,22.3z"/>
	<path class="st2" d="M33.1,18.4l3.7-0.7c0-0.1,0-0.2,0-0.4c0-1.8,0.8-3.2,2.1-3.9l-1.2-3.2l-0.7-1.9c-3.3,1.3-5.6,4.8-5.6,9
		c0,0.5,0,0.9,0.1,1.3l1.5-0.3L33.1,18.4z"/>
	<path class="st0" d="M35.7,25.2l2.5-4.4c-0.8-0.7-1.4-1.8-1.4-3.1l-3.7,0.7l-0.1,0l-1.5,0.3c0.4,3,1.9,5.4,4.1,6.9L35.7,25.2
		L35.7,25.2z"/>
	<path class="st0" d="M41.9,21.7c-0.3,0-0.6,0.1-0.9,0.1c-1.1,0-2.1-0.4-2.8-1l-2.5,4.4l0,0.1l-0.2,0.3c1.3,0.9,2.8,1.4,4.5,1.4
		c1.4,0,2.7-0.3,3.6-0.8l-0.9-2.4L41.9,21.7z"/>
	<path class="st2" d="M41.9,21.7c-0.3,0-0.6,0.1-0.9,0.1c-1.1,0-2.1-0.4-2.8-1l-2.5,4.4l0,0.1l-0.2,0.3c1.3,0.9,2.8,1.4,4.5,1.4
		c1.4,0,2.7-0.3,3.6-0.8l-0.9-2.4L41.9,21.7z"/>
	<path class="st0" d="M42.1,21.7c0,0-0.1,0-0.1,0l0.8,2l0.9,2.4c0,0,0.1,0,0.1-0.1L42.9,24L42.1,21.7z"/>
	<path class="st4" d="M42.1,21.7c0,0-0.1,0-0.1,0l0.8,2l0.9,2.4c0,0,0.1,0,0.1-0.1L42.9,24L42.1,21.7z"/>
	<path class="st0" d="M35.7,25.2l2.5-4.4c0,0,0,0,0,0L35.7,25.2z"/>
	<path class="st4" d="M35.7,25.2l2.5-4.4c0,0,0,0,0,0L35.7,25.2z"/>
	<polygon class="st2" points="50.8,21 49.5,23.3 47.6,26.4 50.5,26.4 50.8,26.2 	"/>
	<polygon class="st0" points="58.6,22.5 58.5,22.6 55.9,26.4 55.9,26.4 58.5,22.6 	"/>
	<polygon class="st0" points="60.2,14.8 60.2,8.3 54.8,8.3 54.8,10.7 57.2,12.5 	"/>
	<polygon class="st2" points="60.2,17.1 60.2,14.8 57.2,12.5 54.8,10.7 54.8,18.1 	"/>
	<polygon class="st0" points="54.8,26.4 55.9,26.4 58.5,22.6 58.6,22.5 60.2,20.2 60.2,17.1 54.8,18.1 	"/>
	<polygon class="st2" points="58.5,22.6 55.9,26.4 60.2,26.4 60.2,20.2 58.6,22.5 	"/>
	<polygon class="st0" points="90.4,16.7 90.3,16.8 86.4,19.5 86.4,19.5 90.4,16.8 	"/>
	<path class="st0" d="M81.5,23l4.3-3c0,0,0,0,0,0L81.5,23C81.5,23,81.5,23,81.5,23z"/>
	<path class="st0" d="M84.6,25.7l-0.9-0.5C84,25.4,84.3,25.6,84.6,25.7z"/>
	<path class="st0" d="M98.4,19.5c0.1-0.7,0.2-1.4,0.2-2.2c0-1.1-0.2-2.2-0.5-3.2l-2.2,5.3H98.4z"/>
	<path class="st2" d="M97.7,23.2L95,21.6l-2,4.8C94.9,25.9,96.5,24.8,97.7,23.2z"/>
	<path class="st2" d="M90.4,16.7l1.8-1.3h-6.8c0.5-1.8,1.9-2.9,4-2.9c1.5,0,2.9,0.6,3.6,2.3l4.1-2.9c-1.6-2.6-4.4-4.2-7.7-4.2
		c-0.7,0-1.4,0.1-2.1,0.2l-2.5,5.9l-3.7,8.8c0.1,0.1,0.2,0.3,0.3,0.4l4.3-3c-0.1-0.1-0.2-0.3-0.2-0.5h0.9L90.4,16.7L90.4,16.7z"/>
	<path class="st3" d="M97.1,12L93,14.9c0.1,0.2,0.1,0.4,0.2,0.6h-1l-1.8,1.3l0,0l-3.9,2.8h9.5l2.2-5.3C97.9,13.4,97.6,12.7,97.1,12z
		"/>
	<path class="st0" d="M83.7,25.2l0.9,0.5c1.5,0.8,3.2,1.2,5.2,1.2c1.2,0,2.2-0.2,3.2-0.4l2-4.8l-1.7-1c-0.7,0.8-2,1.4-3.5,1.4
		c-1.8,0-3.3-0.5-4.1-2.1l-4.3,3C82.1,23.9,82.8,24.6,83.7,25.2z"/>
	<path class="st0" d="M87.3,8c-4.6,0.9-7.6,4.7-7.6,9.4c0,2,0.5,3.8,1.5,5.2l3.7-8.8L87.3,8z"/>
	<path class="st0" d="M69.2,18.1L69.2,18.1l1.1-3.5c0,0,0,0,0,0L69.2,18.1L69.2,18.1z"/>
	<polygon class="st0" points="76.9,17.5 76.9,17.5 75.9,18.6 	"/>
	<path class="st0" d="M71.1,7.8l-7.1,8c0,0,0,0,0,0L71.1,7.8C71.1,7.8,71.1,7.8,71.1,7.8z"/>
	<path class="st0" d="M71,12.6L72.5,8c0,0,0,0,0,0L71,12.6C71,12.6,71,12.6,71,12.6z"/>
	<path class="st0" d="M78.1,21c0-1.6-0.5-2.7-1.2-3.5l-1,1.1l-0.2,0.2l-7,7.9c0.6,0.1,1.2,0.1,1.8,0.1C74.5,26.9,78.1,25.1,78.1,21z
		"/>
	<path class="st0" d="M73.2,14.2l4.6-2.5c-1.2-2-3.1-3.3-5.3-3.7L71,12.6C72,12.7,72.7,13.3,73.2,14.2z"/>
	<path class="st2" d="M73.2,14.2l4.6-2.5c-1.2-2-3.1-3.3-5.3-3.7L71,12.6C72,12.7,72.7,13.3,73.2,14.2z"/>
	<path class="st0" d="M75.9,18.6l1-1.1c-1.7-1.9-4.8-2.3-6.5-2.9l-1.1,3.5l0,0l-0.3,1.1c1.9,0.6,3.7,0.9,3.7,1.7
		c0,0.7-0.7,1.1-2,1.1c-1,0-1.8-0.3-2.3-0.9l-1.6,5c0.6,0.3,1.3,0.4,2.1,0.6l7-7.9L75.9,18.6z"/>
	<path class="st1" d="M75.9,18.6l1-1.1c-1.7-1.9-4.8-2.3-6.5-2.9l-1.1,3.5l0,0l-0.3,1.1c1.9,0.6,3.7,0.9,3.7,1.7
		c0,0.7-0.7,1.1-2,1.1c-1,0-1.8-0.3-2.3-0.9l-1.6,5c0.6,0.3,1.3,0.4,2.1,0.6l7-7.9L75.9,18.6z"/>
	<path class="st0" d="M75.9,18.6l-0.2,0.2l-7,7.9c0,0,0,0,0,0l7-7.9L75.9,18.6z"/>
	<path class="st1" d="M75.9,18.6l-0.2,0.2l-7,7.9c0,0,0,0,0,0l7-7.9L75.9,18.6z"/>
	<path class="st0" d="M69.2,18.1l1.1-3.5c-0.7-0.2-1.2-0.5-1.2-1c0-0.7,0.6-1,1.5-1c0.1,0,0.2,0,0.3,0l1.5-4.6
		c-0.4-0.1-0.9-0.1-1.3-0.2l-7.1,8c0.9,1.9,2.9,2.8,4.8,3.3L69.2,18.1L69.2,18.1z"/>
	<path class="st2" d="M67.5,19.9l-4.7,2.7c0.8,1.7,2.2,2.9,3.9,3.6l1.6-5C67.9,20.9,67.7,20.4,67.5,19.9z"/>
	<path class="st2" d="M70.7,7.8c-3.8,0-7.1,2-7.1,5.9c0,0.8,0.2,1.5,0.4,2.1l7.1-8C71,7.8,70.9,7.8,70.7,7.8z"/>
</g>
</svg>
