<svg version="1.1" id="Capa_1" xmlns="http://www.w3.org/2000/svg" xmlns:xlink="http://www.w3.org/1999/xlink" x="0" y="0" viewBox="0 0 496 496" xml:space="preserve"><path d="M256 448h96v16h-96zm-64-304h16v240h-16z"/><path d="M480 160h-32V40c0-22.056-17.944-40-40-40H200c-22.056 0-40 17.944-40 40v40H32v88H0v240h160v48c0 22.056 17.944 40 40 40h208c22.056 0 40-17.944 40-40V336h32c8.824 0 16-7.176 16-16V176c0-8.824-7.176-16-16-16zM160 281.472c-2.512-.896-5.184-1.472-8-1.472h-16c-4.416 0-8-3.592-8-8 0-4.408 3.584-8 8-8h16c4.416 0 8 3.592 8 8v9.472zm0-32c-2.512-.896-5.184-1.472-8-1.472v-16h-16v16c-13.232 0-24 10.768-24 24s10.768 24 24 24h16c4.416 0 8 3.592 8 8 0 4.408-3.584 8-8 8h-16c-4.416 0-8-3.592-8-8h-16c0 13.232 10.768 24 24 24v16h16v-16c2.816 0 5.488-.576 8-1.472v31.48c-5.24 1.184-10.568 1.992-16 1.992-39.704 0-72-32.304-72-72s32.296-72 72-72c5.432 0 10.76.808 16 2v31.472zm0-47.96c-5.256-.968-10.6-1.512-16-1.512-48.52 0-88 39.48-88 88s39.48 88 88 88c5.4 0 10.744-.544 16-1.512V392H16V184h144v17.512zM160 168H48V96h112v72zm320 8v16H256v-16h224zm0 32v16H256v-16h224zM176 40c0-13.232 10.768-24 24-24h208c13.232 0 24 10.768 24 24v24H176V40zm256 416c0 13.232-10.768 24-24 24H200c-13.232 0-24-10.768-24-24v-24h256v24zm0-40H176V80h256v80H256c-8.824 0-16 7.176-16 16v144c0 8.824 7.176 16 16 16h176v80zm-176-96v-80h224l.008 80H256z"/><path d="M272 288h40v16h-40zM32 200v32h16v-16h16v-16zm32-88v32h16v-16h16v-16zM48 360v-16H32v32h32v-16zm400-72h16v16h-16zm-32 0h16v16h-16zM192 112h16v16h-16z"/></svg>