<svg height="640" viewBox="-8 0 480 480" width="640" xmlns="http://www.w3.org/2000/svg"><path d="M456 104H272V24c0-13.254-10.746-24-24-24H24C10.746 0 0 10.746 0 24v432c0 13.254 10.746 24 24 24h224c13.254 0 24-10.746 24-24v-88h160a8 8 0 0 0 8-8v-16h16a8 8 0 0 0 8-8V112a8 8 0 0 0-8-8zm-184 40h104.566c3.61 24.55 22.887 43.828 47.434 47.441v65.125c-24.559 3.586-43.848 22.875-47.434 47.434H272zM24 16h224a8 8 0 0 1 8 8v16h-72a8.003 8.003 0 0 0-6.656 3.559L163.719 64H108.28l-13.6-20.441A8 8 0 0 0 88 40H16V24a8 8 0 0 1 8-8zm224 448H24a8 8 0 0 1-8-8v-40h240v40a8 8 0 0 1-8 8zm8-64H16V56h67.719L97.32 76.441A8 8 0 0 0 104 80h64a8.003 8.003 0 0 0 6.656-3.559L188.281 56H256zm168-48H272v-8h152zm24-24H272v-8h112a8 8 0 0 0 8-8c.027-22.082 17.918-39.973 40-40a8 8 0 0 0 8-8v-80a8 8 0 0 0-8-8 39.627 39.627 0 0 1-34.152-19.2A39.115 39.115 0 0 1 392 136a8 8 0 0 0-8-8H272v-8h176zm0 0"/><path d="M296 240h-16c0 13.254 10.746 24 24 24v8h16v-8c13.254 0 24-10.746 24-24s-10.746-24-24-24v-16a8 8 0 0 1 8 8h16c0-13.254-10.746-24-24-24v-8h-16v8c-13.254 0-24 10.746-24 24s10.746 24 24 24v16a8 8 0 0 1-8-8zm0-32a8 8 0 0 1 8-8v16a8 8 0 0 1-8-8zm24 24a8 8 0 0 1 0 16zM152 440c0 8.836-7.164 16-16 16s-16-7.164-16-16 7.164-16 16-16 16 7.164 16 16zM112 32h48v16h-48zm-72 72h8V88H32a8 8 0 0 0-8 8v16h16zm200-16h-16v16h8v8h16V96a8 8 0 0 0-8-8zM40 368H24v16a8 8 0 0 0 8 8h16v-16h-8zm192 8h-8v16h16a8 8 0 0 0 8-8v-16h-16zm-96-248c-53.02 0-96 42.98-96 96s42.98 96 96 96 96-42.98 96-96c-.059-52.996-43.004-95.941-96-96zm0 176c-44.184 0-80-35.816-80-80s35.816-80 80-80 80 35.816 80 80c-.047 44.164-35.836 79.953-80 80zm0 0"/><path d="M120.32 243.602L94.246 211l-12.492 10 32 40a8.003 8.003 0 0 0 6.039 3H120a8.014 8.014 0 0 0 5.977-2.68l64-72-11.954-10.64zm0 0"/></svg>