<svg version="1.1" id="Layer_1" xmlns="http://www.w3.org/2000/svg" xmlns:xlink="http://www.w3.org/1999/xlink" x="0" y="0" viewBox="0 0 496 496" xml:space="preserve"><path d="M152 200c-35.3 0-64 28.7-64 64s28.7 64 64 64 64-28.7 64-64-28.7-64-64-64zm0 112c-26.5 0-48-21.5-48-48s21.5-48 48-48 48 21.5 48 48-21.5 48-48 48z"/><path d="M160 232.4V224h-16v8.4c-9.1 1.9-16 9.9-16 19.6 0 11 9 20 20 20h8c2.2 0 4 1.8 4 4s-1.8 4-4 4h-8c-2.2 0-4-1.8-4-4v-4h-16v4c0 9.7 6.9 17.7 16 19.6v8.4h16v-8.4c9.1-1.9 16-9.9 16-19.6 0-11-9-20-20-20h-8c-2.2 0-4-1.8-4-4s1.8-4 4-4h8c2.2 0 4 1.8 4 4v4h16v-4c0-9.7-6.9-17.7-16-19.6zm152-40.8v8.4h16v-8.4c9.1-1.9 16-9.9 16-19.6 0-11-9-20-20-20h-8c-2.2 0-4-1.8-4-4s1.8-4 4-4h8c2.2 0 4 1.8 4 4v4h16v-4c0-9.7-6.9-17.7-16-19.6V120h-16v8.4c-9.1 1.9-16 9.9-16 19.6 0 11 9 20 20 20h8c2.2 0 4 1.8 4 4s-1.8 4-4 4h-8c-2.2 0-4-1.8-4-4v-4h-16v4c0 9.7 6.9 17.7 16 19.6zM208 128c35.3 0 64-28.7 64-64S243.3 0 208 0s-64 28.7-64 64 28.7 64 64 64zm0-112c26.5 0 48 21.5 48 48s-21.5 48-48 48-48-21.5-48-48 21.5-48 48-48z"/><path d="M200 95.6v8.4h16v-8.4c9.1-1.9 16-9.9 16-19.6 0-11-9-20-20-20h-8c-2.2 0-4-1.8-4-4s1.8-4 4-4h8c2.2 0 4 1.8 4 4v4h16v-4c0-9.7-6.9-17.7-16-19.6V24h-16v8.4c-9.1 1.9-16 9.9-16 19.6 0 11 9 20 20 20h8c2.2 0 4 1.8 4 4s-1.8 4-4 4h-8c-2.2 0-4-1.8-4-4v-4h-16v4c0 9.7 6.9 17.7 16 19.6zM464 288h-24v-72c0-22.1-17.9-40-40-40h-18.1c1.3-5.1 2.1-10.5 2.1-16 0-35.3-28.7-64-64-64s-64 28.7-64 64c0 5.5.8 10.9 2.1 16H96c-22.1 0-40 17.9-40 40v192c0 22.1 17.9 40 40 40h72v32h-16v16h192v-16h-16v-32h72c22.1 0 40-17.9 40-40v-40h9.1l14.9-5v13h32v-16h-16v-72h16v-16h-32v16zM320 112c26.5 0 48 21.5 48 48s-21.5 48-48 48-48-21.5-48-48 21.5-48 48-48zm-8 368H184v-32h128v32zm112-72c0 13.2-10.8 24-24 24H96c-13.2 0-24-10.8-24-24v-8h352v8zm0-24H72V216c0-13.2 10.8-24 24-24h168.7c11.1 19.1 31.7 32 55.3 32s44.3-12.9 55.3-32H400c13.2 0 24 10.8 24 24v70.5l-19.7-13.2-67.4-23.9c-6.4-2.3-13.3-1.8-19.4 1.3-6.1 3.1-10.5 8.4-12.5 14.9-3.4 11.3 1.6 23.5 12.1 29l17.3 9.2-25.2.1-10.3-25.9c-3.4-8.5-11.5-14-20.7-14-7.1 0-13.9 3.5-18.1 9.3-4.2 5.8-5.3 13.3-3 20.1l2.4 7.2-17.6-9.6c-5.6-3-12.2-3.6-18.3-1.6-6 2-11 6.5-13.6 12.3-5.1 11.3-.4 24.6 10.8 30.1l39.5 19.5 82 16.7 81.7.1V384zm-132-80.1h-14.4l-5.3-15.7c-.6-1.9-.3-4 .8-5.6 2.7-3.8 9.2-2.9 10.9 1.3l8 20zm172 42.3l-17.5 5.8H344.6l-78.2-15.6-38.5-19c-3.4-1.7-4.8-5.7-3.3-9.1.8-1.8 2.3-3.1 4.1-3.7 1.8-.6 3.8-.5 5.5.5l27.5 15h75.9l31.6-15.8-44.7-23.8c-3.7-1.9-5.5-6.2-4.2-10.2.7-2.3 2.3-4.2 4.4-5.2 2.1-1.1 4.6-1.2 6.8-.5l64.7 22.7 25.2 16.8H464v42.1z"/></svg>