<svg version="1.1" id="Capa_1" xmlns="http://www.w3.org/2000/svg" xmlns:xlink="http://www.w3.org/1999/xlink" x="0" y="0" viewBox="0 0 512.1 512.1" xml:space="preserve"><path d="M37.8 229.2c15 75.8 81.5 130.5 158.8 130.6 43 .1 84.3-17 114.8-47.5 54.7-54.6 63.1-140.3 20.2-204.6S206.3 18.5 134.8 48s-112 105.4-97 181.2zm77.9-152.6c57.7-38.5 134.6-30.8 183.6 18.3 27.2 27.2 42.5 64.2 42.5 102.7 0 69.4-49 129.1-117.1 142.6S88.5 317.3 62 253.2s-4-138.1 53.7-176.6z" transform="translate(0 -1)"/><path d="M48.8 327c68.3 77.8 185.2 89.3 267.3 26.3l15.1 15.1c-1.6 5.9.1 12.1 4.4 16.4l108.7 108.7c4.3 4.4 10.6 6 16.4 4.4l7.7 7.7c4.8 4.8 11.3 7.5 18.1 7.5s13.3-2.7 18.1-7.5l-6-6.1 6 6c4.8-4.8 7.5-11.3 7.5-18.1s-2.7-13.3-7.5-18.1l-7.7-7.7c1.6-5.9-.1-12.1-4.4-16.4L383.8 336.5c-4.3-4.3-10.6-5.9-16.4-4.4L352.3 317c63-82 51.5-199-26.3-267.2S130.7-14.7 57.5 58.5c-73.2 73.2-77 190.7-8.7 268.5zm425.6 160.5l12.1-12.1 6.1 6.1c1.6 1.6 2.5 3.8 2.5 6 0 2.3-.9 4.4-2.5 6-3.4 3.2-8.7 3.2-12.1 0l-6.1-6zm-102.7-90.6l24.2-24.2 84.6 84.6-12.1 12.1-12.1 12.1-84.6-84.6zm-24.1-24.1l12.1-12.1 12.1-12.1 12.1 12.1-24.2 24.2-12.1-12.1zm-18.4-30.5c2.1-1.9 4.3-3.7 6.4-5.7 2-2 3.8-4.2 5.7-6.4l12.4 12.4-6 6-6 6-12.5-12.3zm-312-144.7c0-72.6 43.7-138 110.7-165.7 67-27.8 144.2-12.4 195.5 38.9 69.9 70.1 69.9 183.6 0 253.7-51.3 51.3-128.5 66.7-195.5 38.9-67-27.8-110.7-93.2-110.7-165.8z" transform="translate(0 -1)"/><path d="M128.1 187.8h-25.6c-9.4 0-17.1 7.6-17.1 17.1v51.2c0 4.7 3.8 8.5 8.5 8.5h196.3c4.7 0 8.5-3.8 8.5-8.5V136.6c0-9.4-7.6-17.1-17.1-17.1H256c-9.4 0-17.1 7.6-17.1 17.1v110.9H222v-76.8c0-9.4-7.6-17.1-17.1-17.1h-25.6c-9.4 0-17.1 7.6-17.1 17.1v76.8h-17.1v-42.7c.1-9.4-7.5-17-17-17zm128-51.2h25.6v110.9h-25.6V136.6zm-76.8 34.1H205v76.8h-25.6v-76.8zm-76.8 31.2h25.6v42.7h-25.6v-42.7z" transform="translate(0 -1)"/></svg>