<svg version="1.1" id="Слой_1" xmlns="http://www.w3.org/2000/svg" xmlns:xlink="http://www.w3.org/1999/xlink" x="0" y="0" viewBox="0 0 99.2 99.2" xml:space="preserve"><path d="M6.7 81.5v17.2H.9V81.5h5.8zM.9 73.3h5.8v5.8H.9v-5.8zm50 7.3v18.1h-5.4V97c-1.2 1.4-3 2.2-5.4 2.2-4.8 0-8.7-4.2-8.7-9.6 0-5.4 3.9-9.6 8.7-9.6 2.4 0 4.2.8 5.4 2.2v-1.7h5.4zm-5.5 9c0-2.7-1.8-4.4-4.3-4.4s-4.3 1.7-4.3 4.4 1.8 4.4 4.3 4.4c2.5.1 4.3-1.6 4.3-4.4zm-20.2-.2c2.8-1.4 4.7-4.2 4.7-7.4 0-4.8-3.9-8.7-8.7-8.7H11v5.4h10.2c1.6 0 2.9 1.4 2.9 3.3s-1.3 3.3-2.9 3.3h-4.4v-.1H11v13.5h5.8v-8.3h2.8l4.8 8.3h6.2l-5.4-9.3zm29.7-8.8h5.4v18.1h-5.4V80.6zm23.3 12.7c0 4.2-3.6 5.9-7.5 5.9-3.6 0-6.4-1.4-7.8-4.3l4.7-2.7c.5 1.4 1.5 2.1 3.1 2.1 1.3 0 2-.4 2-1.1 0-2-8.9-.9-8.9-7.2 0-4 3.3-5.9 7.1-5.9 2.9 0 5.5 1.3 7.1 3.9l-4.6 2.5c-.5-.9-1.2-1.6-2.4-1.6-.9 0-1.5.4-1.5 1-.2 2 8.7.7 8.7 7.4zm11.7 1.1c1.5 0 2.8-.6 3.5-1.4l4.4 2.5c-1.8 2.5-4.5 3.7-7.9 3.7-6.2 0-10-4.2-10-9.6 0-5.4 3.9-9.6 9.6-9.6 5.3 0 9.2 4.1 9.2 9.6 0 .8-.1 1.5-.2 2.2H85.6c.7 1.9 2.3 2.6 4.3 2.6zm3.4-6.7c-.6-2.1-2.2-2.9-3.8-2.9-2.1 0-3.4 1-4 2.9h7.8z" fill="#181817"/><radialGradient id="SVGID_1_" cx="44.105" cy="58.594" r="26.937" gradientTransform="matrix(1 0 0 .7137 0 16.773)" gradientUnits="userSpaceOnUse"><stop offset="0" stop-color="#d96c47"/><stop offset=".461" stop-color="#955999"/><stop offset=".874" stop-color="#3e2041"/></radialGradient><path fill="url(#SVGID_1_)" d="M50.9 39.3s-19.2-6.6-19.7-6.5c-.5.1-7.4 3-7.4 3l-3.2 7.7c-1.4 1.6-2.3 3.7-2.3 6 0 4.8 4 8.7 8.8 8.7 1.9 0 3.7-.6 5.1-1.7.8-.3 2-2.1 2-2.1.3-.4.6-.9.8-1.4 3.6-5.5 11.1-13.1 15.9-13.7z"/><radialGradient id="SVGID_2_" cx="69.272" cy="41.755" r="56.651" gradientTransform="matrix(.6911 .7228 -.9462 .9047 60.906 -46.088)" gradientUnits="userSpaceOnUse"><stop offset="0" stop-color="#441f42"/><stop offset=".318" stop-color="#975a96"/><stop offset=".685" stop-color="#cf6a50"/><stop offset="1" stop-color="#955999"/></radialGradient><path fill="url(#SVGID_2_)" d="M72.1 2.5C53-8.5 13.5 19.7 18.4 50.2c8.5-9.8 28.9-9.8 42.9-12 16.9-2.7 29.9-24.8 10.8-35.7zm-2.3 13.3c-1.2 6.3-7.5 5.2-18.1 5.9 2.4-1.8 5-3.4 7.6-4.6 3.3-1.5 7.2-1.9 10.5-1.4v.1z"/><linearGradient id="SVGID_3_" gradientUnits="userSpaceOnUse" x1="35.434" y1="16.194" x2="69.863" y2="16.194"><stop offset=".126" stop-color="#3e2041"/><stop offset=".539" stop-color="#955999"/><stop offset="1" stop-color="#d96c47"/></linearGradient><path fill="url(#SVGID_3_)" d="M69.8 15.7C71 8.3 59.5 6 51.6 9.5c-7.4 3.3-15.1 10.5-16.2 15 6.2-1.8 11.6-2.4 16.3-2.7 2.4-1.8 5-3.4 7.6-4.6 3.2-1.5 7.1-2 10.5-1.5z"/><linearGradient id="SVGID_4_" gradientUnits="userSpaceOnUse" x1="30.527" y1="4.511" x2="57.167" y2="39.229"><stop offset="0" stop-color="#fff" stop-opacity="0"/><stop offset=".318" stop-color="#e6f3fc"/><stop offset=".685" stop-color="#f3fafe" stop-opacity="0"/><stop offset="1" stop-color="#e5f3fd"/></linearGradient><path opacity=".4" fill="url(#SVGID_4_)" d="M76.5 5.6a25.3 25.3 0 0 0-4.3-3.2C53.7-8.1 16.2 17.7 18.1 47c9.2-8.4 28.3-8.5 41.6-10.7C74.2 34 85.9 17.2 76.5 5.6zM35.4 24.5c1.1-4.5 8.8-11.6 16.2-15 7.9-3.5 19.3-1.3 18.2 6.1v.2c-1.2 6.3-10.4 5.5-18.1 5.9-4.6.3-10.1 1-16.3 2.8z"/><linearGradient id="SVGID_5_" gradientUnits="userSpaceOnUse" x1="51.839" y1="45.393" x2="63.44" y2="60.474"><stop offset=".126" stop-color="#3e2041"/><stop offset=".539" stop-color="#955999"/><stop offset="1" stop-color="#d96c47"/></linearGradient><circle fill="url(#SVGID_5_)" cx="57.7" cy="53" r="9.6"/><linearGradient id="SVGID_6_" gradientUnits="userSpaceOnUse" x1="45.599" y1="16.878" x2="31.677" y2="1.496"><stop offset="0" stop-color="#fff" stop-opacity="0"/><stop offset=".768" stop-color="#e5f3fd"/></linearGradient><path fill="url(#SVGID_6_)" d="M21.8 33.3s.3-1 1-2.7c.7-1.7 1.8-4 3.4-6.6 1.6-2.6 3.7-5.5 6.4-8.3 1.3-1.4 2.8-2.8 4.3-4.1 1.6-1.3 3.2-2.5 5-3.6.9-.6 1.8-1.1 2.6-1.6.4-.2.9-.5 1.3-.7.4-.2.9-.5 1.4-.7 1.8-.9 3.7-1.6 5.5-2.2 1.9-.6 3.7-1 5.4-1.3 1.8-.2 3.5-.3 5-.2 1.6.1 3 .3 4.2.6.7.1 1.3.2 1.8.4s1 .4 1.4.5c.8.4 1.4.7 1.8 1 .2.1.3.3.4.3l.1.1v.1l-.1-.1c-.1-.1-.2-.2-.4-.3-.4-.2-1-.6-1.9-.9-.8-.3-1.9-.6-3.1-.9-.6-.1-1.3-.2-1.9-.3-.7-.1-1.4-.1-2.2-.1-1.5 0-3.2.1-4.9.4-1.7.3-3.5.7-5.3 1.3-1.8.6-3.7 1.3-5.5 2.1-.4.2-.9.4-1.4.7-.5.2-.9.5-1.4.7-.9.5-1.8 1-2.6 1.5-1.7 1.1-3.4 2.3-5 3.5-1.6 1.3-3 2.6-4.4 4-2.7 2.7-4.9 5.6-6.5 8.2-1.7 2.6-2.8 4.9-3.5 6.5-.5 1.7-.8 2.7-.9 2.7.1 0 .1 0 0 0z"/><radialGradient id="SVGID_7_" cx="55.645" cy="460.882" r="3.415" gradientTransform="matrix(.7071 .70712 -1.09448 1.09444 519.304 -494.427)" gradientUnits="userSpaceOnUse"><stop offset="0" stop-color="#fff"/><stop offset="1" stop-color="#fff" stop-opacity="0"/></radialGradient><path opacity=".2" fill="url(#SVGID_7_)" d="M57 52.1c-2.5 2.5-5.8 3.3-7.3 1.8-1.5-1.5-.7-4.8 1.8-7.3s5.8-3.3 7.3-1.8c1.5 1.5.7 4.8-1.8 7.3z"/></svg>