<svg xmlns="http://www.w3.org/2000/svg" width="471" height="144"><path fill-rule="evenodd" fill="#AE5F30" d="M30.5 50.742L.001 68.371 30.501 86l30.498-17.628L30.5 50.742m177 31l-30.499 17.629 30.5 17.629 30.498-17.628-30.499-17.63m123-44l-30.499 17.629L330.501 73l30.498-17.628-30.499-17.63m58 71l-30.499 17.629 30.5 17.629 30.498-17.628-30.499-17.63m52-96.278l-30.499 17.768L440.501 48l30.498-17.766-30.499-17.77"/><path fill-rule="evenodd" opacity=".302" fill="#8C4920" d="M440.5-.004l-30.499 17.768 30.5 17.768 30.498-17.767L440.5-.004"/><path fill-rule="evenodd" opacity=".6" fill="#D27C48" d="M388.5 99l-30.499 17.629 30.5 17.629 30.498-17.628L388.5 99"/></svg>