<svg xmlns="http://www.w3.org/2000/svg" width="31.969" height="24" viewBox="0 0 31.969 24"><path d="M25.757 18.668l-.038.015v.755c0 1.825-2.265 2.89-4.165 3.462a30.893 30.893 0 0 1-8.651 1.105c-5.761 0-12.205-1.293-12.742-4.13L.082 17.49l-.048-3.175-.042-5.769a3.743 3.743 0 0 1 .587-2.181c1.828-1.975 6.844-2.8 10.928-2.909l2.274-.016c.074 0 .146 0 .218.008l.183.007.019-.022A10.224 10.224 0 0 1 21.892 0a9.907 9.907 0 0 1 10.077 9.7 9.686 9.686 0 0 1-6.212 8.968zm-23.633.8v.021c0 .2.5.907 2.739 1.579a29.412 29.412 0 0 0 8.042.985 28.915 28.915 0 0 0 8.064-1.016c2.292-.7 2.76-1.439 2.76-1.6v-.193l-.071.012a10.57 10.57 0 0 1-1.764.151 10.359 10.359 0 0 1-5.155-1.365l-.017-.01h-.02a39.036 39.036 0 0 1-4.007.2c-4.312 0-8.249-.678-10.533-1.815l-.09-.045zM12.569 5.417a29.692 29.692 0 0 0-7.586.882c-2.2.608-2.973 1.292-3.085 1.6l-.008.021.008.021a.818.818 0 0 1 .039.164l.008.021c.252.4 1.19 1.017 3.07 1.537a29.591 29.591 0 0 0 6.775.88h.068l-.006-.066a9.726 9.726 0 0 1-.035-.776 9.325 9.325 0 0 1 .99-4.2l.043-.086h-.281zm-.312 7.124l-.013-.041h-.048a32.054 32.054 0 0 1-7.744-.963 12.507 12.507 0 0 1-2.4-.9l-.09-.045.066 3.38.014.016a7.5 7.5 0 0 0 3.482 1.535 30.5 30.5 0 0 0 7.168.763c.493 0 1.026-.012 1.629-.038h.129l-.087-.094a9.534 9.534 0 0 1-2.109-3.613zM21.892 1.9a7.809 7.809 0 1 0 8.1 7.8 7.965 7.965 0 0 0-8.1-7.8zm-1.147 8.787v2.5l-4.358-4.263 4.358-4.267v2.437c4.354.61 6.224 3.656 6.843 6.7-1.556-2.134-3.731-3.107-6.843-3.107z" fill="#b60e6d" fill-rule="evenodd"/></svg>