<svg xmlns="http://www.w3.org/2000/svg" width="27" height="27" viewBox="0 0 27 27"><path id="Icon" d="M69.886 208.527v5.23h-2.06v-5.23h-2.114l3.122-3.351L72 208.527h-2.114zm-9.632 13.19l-.248.04V225h-2.32v-3.222l-.441-.059a9.639 9.639 0 0 1-1.919-.456 9.23 9.23 0 0 1-2.651-1.364 8.47 8.47 0 0 1-.685-.538l-.265-.241 1.537-1.668a9.255 9.255 0 0 0 4.144 2.037 6.505 6.505 0 0 0 1.361.144 4.753 4.753 0 0 0 2.74-.814 2.945 2.945 0 0 0 1.319-2.537 2.3 2.3 0 0 0-.35-1.216 3.728 3.728 0 0 0-.68-.831 5.12 5.12 0 0 0-1.114-.707c-.443-.222-.817-.4-1.11-.527s-.731-.3-1.317-.523q-.638-.257-1.005-.4t-.969-.409c-.4-.175-.717-.329-.948-.459s-.529-.313-.875-.539a4.987 4.987 0 0 1-.754-.583 9.39 9.39 0 0 1-.653-.72 3.17 3.17 0 0 1-.469-.747 5.66 5.66 0 0 1-.3-.934 4.733 4.733 0 0 1-.119-1.076 4.634 4.634 0 0 1 1.387-3.341 6.7 6.7 0 0 1 3.736-1.911l.4-.075V198h2.319v3.281l.289.017a8.515 8.515 0 0 1 1.646.336 9.87 9.87 0 0 1 1.307.49 7.151 7.151 0 0 1 .933.539c.41.281.532.378.566.408l.479.427-1.5 1.594-.06-.046a8.813 8.813 0 0 0-.692-.461 8.975 8.975 0 0 0-1.034-.554 8.021 8.021 0 0 0-1.336-.458 6.284 6.284 0 0 0-1.579-.207 5.047 5.047 0 0 0-2.951.819 2.823 2.823 0 0 0-1.1 3.383 2.516 2.516 0 0 0 .667.93 7.832 7.832 0 0 0 .709.579 6.357 6.357 0 0 0 1.033.564q.627.287 1.013.443c.254.1.638.25 1.158.445.564.208 1 .371 1.294.492.283.113.672.289 1.188.536a9.1 9.1 0 0 1 1.13.621 9.37 9.37 0 0 1 .931.736 3.436 3.436 0 0 1 .71.824 5.011 5.011 0 0 1 .444 1.06 4.433 4.433 0 0 1 .182 1.284 5.222 5.222 0 0 1-1.423 3.694 6.231 6.231 0 0 1-3.755 1.941zM45 214.024h2.114V208.8h2.06v5.229h2.114l-3.167 3.351z" transform="translate(-45 -198)" fill="#b60e6d" fill-rule="evenodd"/></svg>