<svg version="1.1" id="Слой_1" xmlns="http://www.w3.org/2000/svg" xmlns:xlink="http://www.w3.org/1999/xlink" x="0" y="0" viewBox="0 0 512 393" xml:space="preserve"><path d="M486.4-.3H25.6C11.5-.3 0 11.2 0 25.3v341.3c0 14.1 11.5 25.6 25.6 25.6h460.8c14.1 0 25.6-11.5 25.6-25.6V25.3c0-14.1-11.5-25.6-25.6-25.6zm8.5 367c0 4.7-3.8 8.5-8.5 8.5H25.6c-4.7 0-8.5-3.8-8.5-8.5V25.3c0-4.7 3.8-8.5 8.5-8.5h460.8c4.7 0 8.5 3.8 8.5 8.5v341.4z"/><path d="M470.1 33.9c-2.3-.2-4.5.5-6.2 2L267 201.2c-6.3 5.3-15.6 5.3-22 0L48.2 35.9c-2.3-2-5.5-2.5-8.4-1.5-2.9 1-5 3.5-5.5 6.5s.6 6.1 2.9 8L234 214.3c12.7 10.7 31.2 10.7 43.9 0L474.8 48.9c1.7-1.5 2.8-3.5 3-5.8.2-2.3-.5-4.5-2-6.2-1.4-1.7-3.5-2.8-5.7-3zm-306 179.2c-3-.7-6.2.3-8.2 2.6l-119.5 128c-2.2 2.2-3 5.4-2.1 8.4.9 3 3.3 5.2 6.3 5.9 3 .7 6.2-.3 8.2-2.6l119.5-128c2.2-2.2 3-5.4 2.1-8.4s-3.3-5.2-6.3-5.9zm192 2.7c-2.1-2.3-5.2-3.3-8.2-2.6s-5.4 2.9-6.3 5.9c-.9 3-.1 6.2 2.1 8.4l119.5 128c3.2 3.3 8.5 3.4 11.9.3 3.4-3.2 3.6-8.5.5-11.9L356.1 215.8z"/></svg>