<svg xmlns="http://www.w3.org/2000/svg" width="26" height="27" viewBox="0 0 26 27"><path id="Icon" d="M69.61 624.994H50.388A3.235 3.235 0 0 1 47 621.953v-16.479a3.415 3.415 0 0 1 3.392-3.234h2.859v-1.2a.837.837 0 0 1 .971-.726h2.189A3.662 3.662 0 0 1 59.964 598a3.606 3.606 0 0 1 3.551 2.314h2.227a.875.875 0 0 1 1.01.726v1.2h2.859A3.414 3.414 0 0 1 73 605.468v16.485a3.235 3.235 0 0 1-3.39 3.041zm-4.643-22.92h-2.116a.968.968 0 0 1-.891-.784 2.1 2.1 0 0 0-2-1.646 2.146 2.146 0 0 0-2.037 1.65.958.958 0 0 1-.837.779h-2.055v2.866h9.936v-2.866zm6.251 3.4a1.635 1.635 0 0 0-1.61-1.474h-2.856v1.858a.977.977 0 0 1-1.016.842H54.217a.923.923 0 0 1-.97-.832V604h-2.859a1.636 1.636 0 0 0-1.609 1.481v16.47a1.466 1.466 0 0 0 1.608 1.279H69.61a1.466 1.466 0 0 0 1.608-1.279v-16.477zM68.2 618.658h-8.982a.881.881 0 1 1 0-1.762H68.2a.881.881 0 1 1 0 1.762zm0-6.171h-8.982a.881.881 0 1 1 0-1.762H68.2a.881.881 0 1 1 0 1.762zm-14.18 6.873a.894.894 0 0 1-.622.262h-.025a.819.819 0 0 1-.606-.268l-1.6-1.617a.879.879 0 1 1 1.254-1.231l.978 1 2.422-2.278a.9.9 0 0 1 1.249.044.547.547 0 0 1 .046.046.834.834 0 0 1-.052 1.19zm0-6.17a.889.889 0 0 1-.622.261h-.025a.816.816 0 0 1-.606-.269l-1.6-1.616a.879.879 0 1 1 1.254-1.232l.977 1 2.422-2.279a.905.905 0 0 1 1.249.044.507.507 0 0 1 .047.046.836.836 0 0 1-.052 1.19z" transform="translate(-47 -598)" fill="#b60e6d" fill-rule="evenodd"/></svg>