<svg xmlns="http://www.w3.org/2000/svg" xmlns:xlink="http://www.w3.org/1999/xlink" width="639" height="335"><defs><linearGradient id="PSgrad_0" x1="0%" x2="0%" y1="0%" y2="100%"><stop offset="25%" stop-color="#BB6735"/><stop offset="100%" stop-color="#D57B46"/></linearGradient></defs><path fill-rule="evenodd" fill="#E2EDEF" d="M638.928 256.725a1.714 1.714 0 0 0-.808-1.05l-109.552-63.113a1.763 1.763 0 0 0-1.725.007l-67.106 38.661-110.686-63.764 60.84-35.049 58.265 33.566a1.757 1.757 0 0 0 1.734-.001l83.851-48.306c.401-.232.688-.605.808-1.053a1.723 1.723 0 0 0-.175-1.315 1.744 1.744 0 0 0-2.371-.632l-82.981 47.806-55.66-32.065 106.484-61.345a1.724 1.724 0 0 0 .635-2.363c-.471-.818-1.527-1.107-2.373-.636L409.89 128.417l-67.001-38.599a1.747 1.747 0 0 0-1.734.002l-63.443 36.548-80.38-46.305 133.349-76.82a1.727 1.727 0 0 0 .632-2.368 1.73 1.73 0 0 0-1.06-.807 1.721 1.721 0 0 0-1.31.176L192.995 78.561c-.512.294-.84.83-.869 1.416l-.15.086.15.086c.029.586.357 1.122.866 1.414l34.03 19.604-58.397 33.641-96.618-55.66a1.74 1.74 0 0 0-2.372.632 1.733 1.733 0 0 0 .634 2.368l94.884 54.66-36.468 21.01a1.735 1.735 0 0 0-.869 1.415l-.149.086.149.086c.03.59.36 1.129.866 1.413l44.614 25.702-21.764 12.538L2.618 113.272a1.731 1.731 0 1 0-1.747 2.994l149.778 86.283a1.727 1.727 0 0 0 1.751.009l24.368-14.038 67.002 38.6a1.736 1.736 0 0 0 1.734-.001l38.207-22.011 61.674 35.529-36.47 21.01c-.511.294-.839.83-.868 1.416l-.15.086.15.086c.029.586.357 1.122.866 1.414l81.132 46.736a1.73 1.73 0 0 0 2.394-.618 1.731 1.731 0 0 0-.634-2.367l-78.553-45.251 35.605-20.512 159.897 92.114a1.734 1.734 0 0 0 2.393-.618 1.731 1.731 0 0 0-.634-2.367l-158.185-91.128 58.398-33.643 48.145 27.736a1.757 1.757 0 0 0 1.734-.001l67.106-38.661 108.667 62.604a1.74 1.74 0 0 0 2.376-.63c.233-.402.295-.869.174-1.318zM274.24 128.368l-58.398 33.642-43.745-25.202 58.397-33.641 43.746 25.201zm6.944 0l60.839-35.048 64.396 37.097-60.84 35.049-64.395-37.098zm60.924 39.098l-58.397 33.642-64.397-37.098 58.398-33.642 64.396 37.098zm-129.737-3.456l-35.604 20.51-43.745-25.201 35.603-20.51 43.746 25.201zm3.472 2l64.396 37.098-35.603 20.511-64.397-37.099 35.604-20.51zm129.737 3.456l61.673 35.529-58.397 33.642-61.673-35.529 58.397-33.642z"/><path fill="url(#PSgrad_0)" d="M638.928 256.725a1.714 1.714 0 0 0-.808-1.05l-109.552-63.113a1.763 1.763 0 0 0-1.725.007l-67.106 38.661-110.686-63.764 60.84-35.049 58.265 33.566a1.757 1.757 0 0 0 1.734-.001l83.851-48.306c.401-.232.688-.605.808-1.053a1.723 1.723 0 0 0-.175-1.315 1.744 1.744 0 0 0-2.371-.632l-82.981 47.806-55.66-32.065 106.484-61.345a1.724 1.724 0 0 0 .635-2.363c-.471-.818-1.527-1.107-2.373-.636L409.89 128.417l-67.001-38.599a1.747 1.747 0 0 0-1.734.002l-63.443 36.548-80.38-46.305 133.349-76.82a1.727 1.727 0 0 0 .632-2.368 1.73 1.73 0 0 0-1.06-.807 1.721 1.721 0 0 0-1.31.176L192.995 78.561c-.512.294-.84.83-.869 1.416l-.15.086.15.086c.029.586.357 1.122.866 1.414l34.03 19.604-58.397 33.641-96.618-55.66a1.74 1.74 0 0 0-2.372.632 1.733 1.733 0 0 0 .634 2.368l94.884 54.66-36.468 21.01a1.735 1.735 0 0 0-.869 1.415l-.149.086.149.086c.03.59.36 1.129.866 1.413l44.614 25.702-21.764 12.538L2.618 113.272a1.731 1.731 0 1 0-1.747 2.994l149.778 86.283a1.727 1.727 0 0 0 1.751.009l24.368-14.038 67.002 38.6a1.736 1.736 0 0 0 1.734-.001l38.207-22.011 61.674 35.529-36.47 21.01c-.511.294-.839.83-.868 1.416l-.15.086.15.086c.029.586.357 1.122.866 1.414l81.132 46.736a1.73 1.73 0 0 0 2.394-.618 1.731 1.731 0 0 0-.634-2.367l-78.553-45.251 35.605-20.512 159.897 92.114a1.734 1.734 0 0 0 2.393-.618 1.731 1.731 0 0 0-.634-2.367l-158.185-91.128 58.398-33.643 48.145 27.736a1.757 1.757 0 0 0 1.734-.001l67.106-38.661 108.667 62.604a1.74 1.74 0 0 0 2.376-.63c.233-.402.295-.869.174-1.318zM274.24 128.368l-58.398 33.642-43.745-25.202 58.397-33.641 43.746 25.201zm6.944 0l60.839-35.048 64.396 37.097-60.84 35.049-64.395-37.098zm60.924 39.098l-58.397 33.642-64.397-37.098 58.398-33.642 64.396 37.098zm-129.737-3.456l-35.604 20.51-43.745-25.201 35.603-20.51 43.746 25.201zm3.472 2l64.396 37.098-35.603 20.511-64.397-37.099 35.604-20.51zm129.737 3.456l61.673 35.529-58.397 33.642-61.673-35.529 58.397-33.642z"/></svg>