<svg version="1.1" id="Слой_1" xmlns="http://www.w3.org/2000/svg" xmlns:xlink="http://www.w3.org/1999/xlink" x="0" y="0" viewBox="0 0 158.7 158.7" xml:space="preserve"><radialGradient id="SVGID_1_" cx="65.626" cy="146.806" r="67.197" gradientTransform="matrix(1 0 0 .7137 0 42.025)" gradientUnits="userSpaceOnUse"><stop offset="0" stop-color="#cd5f26"/><stop offset=".461" stop-color="#95227b"/><stop offset=".874" stop-color="#4e1342"/></radialGradient><path d="M82.6 98.7S34.8 82.3 33.5 82.5c-1.3.2-18.4 7.6-18.4 7.6l-7.9 19.3c-3.6 3.9-5.8 9.1-5.7 14.9.1 12.1 9.9 21.8 22 21.7 4.8 0 9.2-1.6 12.8-4.2 1.9-.8 5.1-5.2 5.1-5.3.7-1.1 1.4-2.2 1.9-3.4 8.5-13.9 27.4-32.9 39.3-34.4z" fill="url(#SVGID_1_)"/><radialGradient id="SVGID_2_" cx="128.406" cy="104.799" r="141.325" gradientTransform="matrix(.6911 .7228 -.9462 .9047 138.824 -82.821)" gradientUnits="userSpaceOnUse"><stop offset="0" stop-color="#521043"/><stop offset=".318" stop-color="#97257a"/><stop offset=".685" stop-color="#c85935"/><stop offset="1" stop-color="#95227b"/></radialGradient><path d="M135.6 6.8C88-20.6-10.7 49.6 1.5 125.9c21.3-24.4 72.2-24.4 107-30 42.1-6.8 74.6-61.7 27.1-89.1zm-5.9 33.3c-2.9 15.7-18.8 13-45.1 14.7 5.9-4.5 12.4-8.6 18.8-11.5 8.2-3.7 17.9-4.8 26.3-3.6.1.2 0 .3 0 .4z" fill="url(#SVGID_2_)"/><linearGradient id="SVGID_3_" gradientUnits="userSpaceOnUse" x1="43.993" y1="41.034" x2="129.881" y2="41.034"><stop offset=".126" stop-color="#4e1342"/><stop offset=".539" stop-color="#95227b"/><stop offset="1" stop-color="#cd5f26"/></linearGradient><path d="M129.7 39.8c3-18.5-25.6-24.3-45.3-15.4C65.9 32.8 46.6 50.6 44 61.7c15.4-4.5 29-6.1 40.6-6.8 5.9-4.5 12.4-8.6 18.8-11.5 8.2-3.7 17.9-4.8 26.3-3.6z" fill="url(#SVGID_3_)"/><linearGradient id="SVGID_4_" gradientUnits="userSpaceOnUse" x1="31.753" y1="11.889" x2="98.209" y2="98.497"><stop offset="0" stop-color="#fff" stop-opacity="0"/><stop offset=".318" stop-color="#eef6fd"/><stop offset=".685" stop-color="#f8fbff" stop-opacity="0"/><stop offset="1" stop-color="#ecf5fd"/></linearGradient><path d="M146.3 14.7c-3-2.8-6.6-5.5-10.8-7.9C89.6-19.7-3.9 44.8.7 117.9c22.9-21 70.5-21.2 103.7-26.6 36.3-5.8 65.5-47.7 41.9-76.6zM44 61.7c2.6-11.1 21.9-29 40.4-37.3 19.6-8.9 48.2-3.1 45.3 15.3h.1c0 .1 0 .3-.1.4-2.9 15.7-25.9 13.8-45.1 14.7-11.4.8-25.2 2.5-40.6 6.9z" opacity=".4" fill="url(#SVGID_4_)"/><linearGradient id="SVGID_5_" gradientUnits="userSpaceOnUse" x1="84.918" y1="113.875" x2="113.857" y2="151.496"><stop offset=".126" stop-color="#4e1342"/><stop offset=".539" stop-color="#95227b"/><stop offset="1" stop-color="#cd5f26"/></linearGradient><circle cx="99.6" cy="132.9" r="24" fill="url(#SVGID_5_)"/><linearGradient id="SVGID_6_" gradientUnits="userSpaceOnUse" x1="69.35" y1="42.74" x2="34.622" y2="4.367"><stop offset="0" stop-color="#fff" stop-opacity="0"/><stop offset=".768" stop-color="#ecf5fd"/></linearGradient><path d="M10 83.7s.7-2.5 2.4-6.6 4.4-10 8.4-16.5c4-6.6 9.3-13.8 16-20.8 3.3-3.5 6.9-6.9 10.8-10.1 3.9-3.2 8.1-6.2 12.4-9 2.2-1.4 4.4-2.7 6.6-4 1.1-.6 2.2-1.2 3.4-1.8 1.1-.6 2.3-1.1 3.4-1.7C78 10.9 82.6 9 87.2 7.5c4.6-1.4 9.2-2.5 13.6-3.1 4.4-.6 8.6-.8 12.5-.6 3.9.1 7.4.7 10.5 1.4 1.5.3 2.9.8 4.2 1.2 1.3.5 2.5.9 3.5 1.4 2.1.9 3.6 1.8 4.6 2.5.5.4.8.7 1.1.9l.3.3v.1h-.1s-.1-.1-.4-.3c-.2-.2-.6-.5-1.1-.8-1-.6-2.6-1.4-4.6-2.2-2.1-.8-4.7-1.6-7.7-2.1-1.5-.3-3.1-.5-4.9-.7-1.7-.2-3.5-.3-5.4-.3-3.8-.1-7.9.2-12.2.9-4.3.7-8.8 1.7-13.3 3.2-4.5 1.4-9.1 3.2-13.6 5.3-1.1.5-2.3 1.1-3.4 1.6-1.1.6-2.3 1.2-3.4 1.8-2.2 1.2-4.4 2.5-6.6 3.8-4.3 2.7-8.5 5.6-12.4 8.8-3.9 3.1-7.5 6.5-10.9 9.9-6.7 6.8-12.1 14-16.2 20.4-4.1 6.4-6.9 12.2-8.7 16.3-1.8 4.1-2.5 6.6-2.5 6.6l-.1.1v-.2z" fill="url(#SVGID_6_)"/><radialGradient id="SVGID_7_" cx="122.149" cy="516.581" r="8.52" gradientTransform="matrix(.7071 .70712 -1.09448 1.09444 569.88 -528.014)" gradientUnits="userSpaceOnUse"><stop offset="0" stop-color="#fff"/><stop offset="1" stop-color="#fff" stop-opacity="0"/></radialGradient><path d="M97.7 130.6c-6.2 6.2-14.4 8.2-18.1 4.5-3.8-3.8-1.8-11.9 4.5-18.1s14.4-8.2 18.1-4.5c3.7 3.7 1.7 11.8-4.5 18.1z" opacity=".2" fill="url(#SVGID_7_)"/></svg>