<svg version="1.1" id="Слой_1" xmlns="http://www.w3.org/2000/svg" xmlns:xlink="http://www.w3.org/1999/xlink" x="0" y="0" viewBox="0 0 178.6 48.2" xml:space="preserve"><path d="M11.8 15.3v31.2H1.3V15.3h10.5zM1.3.5h10.5V11H1.3V.5zm90.4 13.1v32.8h-9.8v-3.1c-2.2 2.5-5.4 4-9.8 4-8.6 0-15.7-7.5-15.7-17.3s7.1-17.3 15.7-17.3c4.4 0 7.6 1.5 9.8 4v-3.1h9.8zM81.9 30c0-4.9-3.3-8-7.8-8s-7.8 3.1-7.8 8 3.3 8 7.8 8 7.8-3 7.8-8zm-36.6-.4c5.1-2.6 8.5-7.7 8.5-13.3 0-8.7-7-15.7-15.7-15.7H19.7v9.8h18.4c2.9 0 5.2 2.6 5.2 5.9s-2.4 5.9-5.2 5.9h-7.9v-.1H19.7v24.4h10.5V31.4h5l8.7 15.1h11.3l-9.9-16.9zm53.6-16h9.8v32.8h-9.8V13.6zm42.2 23c0 7.5-6.6 10.8-13.6 10.8-6.6 0-11.5-2.5-14.1-7.8l8.5-4.9c.9 2.5 2.7 3.9 5.6 3.9 2.4 0 3.5-.7 3.5-2 0-3.6-16.1-1.7-16.1-13.1 0-7.2 6-10.8 12.9-10.8 5.3 0 10 2.4 12.8 7l-8.4 4.5c-.9-1.7-2.2-2.9-4.4-2.9-1.7 0-2.8.7-2.8 1.8 0 3.9 16.1 1.4 16.1 13.5zm21.3 2c2.7 0 5-1 6.3-2.5l7.9 4.5c-3.2 4.5-8.1 6.8-14.3 6.8-11.2 0-18.2-7.5-18.2-17.3s7.1-17.3 17.5-17.3c9.6 0 16.7 7.4 16.7 17.3 0 1.4-.1 2.7-.4 3.9h-23.3c1.1 3.4 4.2 4.6 7.8 4.6zm6-12c-1-3.8-4-5.2-7-5.2-3.7 0-6.2 1.8-7.2 5.2h14.2z" fill="#302f2e"/></svg>