<svg xmlns="http://www.w3.org/2000/svg" width="13" height="11" viewBox="0 0 13 11"><path id="Icon" d="M1224.8 126a1.078 1.078 0 0 0 .76-.309l-3.67-3.7a24.179 24.179 0 0 1-.92.711 4.17 4.17 0 0 1-.68.375 1.971 1.971 0 0 1-.8.191h-.01a1.971 1.971 0 0 1-.8-.191 4.17 4.17 0 0 1-.68-.375c-.17-.122-.39-.293-.67-.511-.07-.061-.16-.128-.25-.2l-3.67 3.7a1.078 1.078 0 0 0 .76.309h10.63zm-11.78-7.19v5.772l2.98-3.234c-1.35-1.021-3.36-2.989-2.98-2.539zm9.95 2.54l2.98 3.232v-5.772c.37-.444-1.6 1.496-2.98 2.539zm1.83-6.35h-10.63a.99.99 0 0 0-.85.406.97.97 0 0 0-.3.753 1.936 1.936 0 0 0 .39 1.067 5.756 5.756 0 0 0 .85 1.164c.16.125.66.5 1.48 1.113.44.333.83.623 1.16.874.28.213.53.4.73.551.02.018.06.046.11.084s.12.091.2.155q.225.183.39.3c.1.075.23.16.37.253a2.237 2.237 0 0 0 .42.212 1.089 1.089 0 0 0 .36.07h.01a1.089 1.089 0 0 0 .36-.07 2.237 2.237 0 0 0 .42-.212c.15-.093.27-.178.37-.253s.24-.175.39-.3c.09-.064.15-.115.2-.155s.09-.066.11-.084c.16-.118.4-.3.73-.549l2.65-1.989a3.687 3.687 0 0 0 .88-.961 2.143 2.143 0 0 0 .35-1.18 1.239 1.239 0 0 0-.34-.882 1.076 1.076 0 0 0-.81-.367z" transform="translate(-1213 -115)" fill="#555" fill-rule="evenodd"/></svg>