<svg xmlns="http://www.w3.org/2000/svg" width="27" height="27" viewBox="0 0 27 27"><path id="icon" d="M69.621 734H49.374A3.377 3.377 0 0 1 46 730.621v-16.874a2.53 2.53 0 0 1 2.529-2.529h.845v-1.689A2.531 2.531 0 0 1 51.908 707h18.558A2.534 2.534 0 0 1 73 709.529v21.092A3.378 3.378 0 0 1 69.621 734zm1.69-24.471a.842.842 0 0 0-.845-.84H51.908a.842.842 0 0 0-.845.84v20.253a.845.845 0 0 1-1.689 0v-16.874h-.845a.837.837 0 0 0-.84.839v16.874a1.688 1.688 0 0 0 1.684 1.69h20.248a1.692 1.692 0 0 0 1.69-1.69v-21.092zM69.2 729.745h-6.746a.65.65 0 0 1-.425-.745.659.659 0 0 1 .425-.749H69.2a.661.661 0 0 1 .42.749.651.651 0 0 1-.42.745zm0-3.7h-6.746a.879.879 0 0 1 0-1.5H69.2a.884.884 0 0 1 0 1.502zm0-3.981H53.172a.671.671 0 0 1-.425-.76.664.664 0 0 1 .425-.75H69.2a.666.666 0 0 1 .42.75.673.673 0 0 1-.42.762zm0-4.1h-6.75a.865.865 0 0 1 0-1.485h6.75a.867.867 0 0 1 0 1.491zm0-4.407h-6.75a.875.875 0 0 1 0-1.5h6.75a.876.876 0 0 1 0 1.506zm-9.7 4.271h-5.908a.712.712 0 0 1-.713-.708v-5.9a.713.713 0 0 1 .713-.713H59.5a.713.713 0 0 1 .713.713v5.9a.711.711 0 0 1-.713.714zm-.713-5.9H54.3v4.482h4.482v-4.482zm-5.615 12.611h6.748a.879.879 0 0 1 0 1.5h-6.748a.879.879 0 0 1 0-1.497zm0 3.712h6.748a.659.659 0 0 1 .425.749.65.65 0 0 1-.425.742h-6.748a.65.65 0 0 1-.425-.742.659.659 0 0 1 .425-.746z" transform="translate(-46 -707)" fill="#b60e6d" fill-rule="evenodd"/></svg>