<svg xmlns="http://www.w3.org/2000/svg" width="12" height="15" viewBox="0 0 12 15"><path id="Forma_1" data-name="Forma 1" d="M1219.34 146.958l2.62-2.521a.52.52 0 0 0 0-.76.574.574 0 0 0-.79 0l-3.57 3.438a.52.52 0 0 0 0 .76l3.57 3.438a.564.564 0 0 0 .39.158.57.57 0 0 0 .4-.158.519.519 0 0 0 0-.759l-2.62-2.522h6.66v5.2a1.741 1.741 0 0 1-1.71 1.765h-8.58a1.741 1.741 0 0 1-1.71-1.765v-11.47a1.741 1.741 0 0 1 1.71-1.765h8.58a1.741 1.741 0 0 1 1.71 1.765v5.193h-6.66z" transform="translate(-1214 -140)" fill="#555" fill-rule="evenodd"/></svg>