<svg version="1.1" id="Layer_1" xmlns="http://www.w3.org/2000/svg" xmlns:xlink="http://www.w3.org/1999/xlink" x="0" y="0" viewBox="0 0 512 512" xml:space="preserve"><style>.st2{fill:#72206a}</style><path d="M128 0c-17.6 0-32 14.4-32 32v448c0 17.6 14.4 32 32 32h320c17.6 0 32-14.4 32-32V128L352 0H128z" fill="#95217b"/><path d="M384 128h96L352 0v96c0 17.6 14.4 32 32 32z" fill="#511446"/><path class="st2" d="M480 224l-96-96h96z"/><path d="M416 416c0 8.8-7.2 16-16 16H48c-8.8 0-16-7.2-16-16V256c0-8.8 7.2-16 16-16h352c8.8 0 16 7.2 16 16v160z" fill="#f15642"/><path d="M101.7 303.2c0-4.2 3.3-8.8 8.7-8.8H140c16.6 0 31.6 11.1 31.6 32.5 0 20.2-15 31.5-31.6 31.5h-21.4v16.9c0 5.6-3.6 8.8-8.2 8.8-4.2 0-8.7-3.2-8.7-8.8v-72.1zm16.9 7.2v31.9H140c8.6 0 15.4-7.6 15.4-15.5 0-8.9-6.8-16.4-15.4-16.4h-21.4zm78.1 73.6c-4.2 0-8.8-2.3-8.8-7.9v-72.7c0-4.6 4.6-7.9 8.8-7.9H226c58.5 0 57.2 88.5 1.2 88.5h-30.5zm8-72.9v57.3H226c34.5 0 36.1-57.3 0-57.3h-21.3zm99.2 1v20.3h32.6c4.6 0 9.2 4.6 9.2 9.1 0 4.2-4.6 7.7-9.2 7.7h-32.6v26.9c0 4.5-3.2 7.9-7.7 7.9-5.6 0-9.1-3.4-9.1-7.9v-72.7c0-4.6 3.5-7.9 9.1-7.9h44.9c5.6 0 9 3.3 9 7.9 0 4.1-3.3 8.7-9 8.7h-37.2z" fill="#fff"/><path class="st2" d="M400 432H96v16h304c8.8 0 16-7.2 16-16v-16c0 8.8-7.2 16-16 16z"/></svg>