<svg version="1.1" id="Слой_1" xmlns="http://www.w3.org/2000/svg" xmlns:xlink="http://www.w3.org/1999/xlink" x="0" y="0" viewBox="0 0 512 512" xml:space="preserve"><defs><path id="SVGID_1_" d="M0 0h512v512H0z"/></defs><clipPath id="SVGID_2_"><use xlink:href="#SVGID_1_" overflow="visible"/></clipPath><path clip-path="url(#SVGID_2_)" d="M256 0C114.6 0 0 114.6 0 256s114.6 256 256 256 256-114.6 256-256S397.4 0 256 0m88.5 269.6l-128 80c-2.6 1.6-5.5 2.4-8.5 2.4-2.7 0-5.3-.7-7.8-2-5.1-2.8-8.2-8.2-8.2-14V176c0-5.8 3.2-11.2 8.2-14 5.1-2.8 11.3-2.7 16.2.4l128 80c4.7 2.9 7.5 8.1 7.5 13.6.1 5.5-2.7 10.6-7.4 13.6"/></svg>