<svg xmlns="http://www.w3.org/2000/svg" width="35" height="27" viewBox="0 0 35 27"><path id="Icon" d="M75.969 512.541h-3.081a1.044 1.044 0 0 1 0-2.087h3.082a1.044 1.044 0 0 1-.001 2.087zm-3.383-4.48a1.015 1.015 0 0 1-1.453 0 1.054 1.054 0 0 1 0-1.475l2.054-2.087a1.017 1.017 0 0 1 1.453 0 1.055 1.055 0 0 1 0 1.476zM65.7 522.907a3.049 3.049 0 0 1-2.982-2.606v-.022l-.952-.967a9.243 9.243 0 0 0-6.472-2.665h-1.099v5.284a3.016 3.016 0 1 1-6.031 0v-5.444l-.044-.016a3.071 3.071 0 0 1-1.837-1.866l-.016-.045h-.224a4.107 4.107 0 0 1 0-8.213h.223l.015-.044a3.025 3.025 0 0 1 2.843-2.042h6.163a9.243 9.243 0 0 0 6.472-2.666l.937-.951.015-.016v-.022a3.013 3.013 0 0 1 6 .458v18.78a3.043 3.043 0 0 1-3.011 3.063zM46.109 508.3h-.066a2.154 2.154 0 0 0 0 4.307h.066V508.3zm3.977 13.631a1.093 1.093 0 1 0 2.186 0v-5.284h-2.187v5.284zm4.241-15.718h-5.2a1.1 1.1 0 0 0-1.093 1.11v6.261a1.1 1.1 0 0 0 1.093 1.11h5.2v-8.481zm8.355-2.816l-.109.1a11.093 11.093 0 0 1-6.27 2.673l-.06.006v8.563l.06.006a11.1 11.1 0 0 1 6.27 2.674l.109.1V503.4zm4.109-2.333a1.093 1.093 0 1 0-2.186 0v18.78a1.093 1.093 0 1 0 2.186 0v-18.78zm5.8 13.869l2.054 2.087a1.054 1.054 0 0 1 0 1.475 1.015 1.015 0 0 1-1.453 0l-2.055-2.087a1.054 1.054 0 0 1 0-1.475 1.015 1.015 0 0 1 1.45 0z" transform="translate(-42 -498)" fill="#b60e6d" fill-rule="evenodd"/></svg>