<svg xmlns="http://www.w3.org/2000/svg" width="1676" height="865"><defs><linearGradient id="PSgrad_0" x1="86.603%" x2="0%" y1="50%" y2="0%"><stop offset="15%" stop-color="#FFF" stop-opacity="0"/><stop offset="100%" stop-color="#E0ECED"/><stop offset="100%" stop-color="#E0ECED"/></linearGradient></defs><path fill-rule="evenodd" fill="#FFF" d="M96 187h1268a6 6 0 0 1 6 6v493a6 6 0 0 1-6 6H96a6 6 0 0 1-6-6V193a6 6 0 0 1 6-6z"/><path fill-rule="evenodd" fill="none" d="M471.832-.016l233.165 154.737-471.842 710.292L-.011 710.276 471.832-.016z"/><path fill="url(#PSgrad_0)" d="M471.832-.016l233.165 154.737-471.842 710.292L-.011 710.276 471.832-.016z"/><path fill-rule="evenodd" fill="none" d="M1442.832-.016l233.165 154.737-471.842 710.292-233.166-154.737L1442.832-.016z"/><path fill="url(#PSgrad_0)" d="M1442.832-.016l233.165 154.737-471.842 710.292-233.166-154.737L1442.832-.016z"/></svg>