<svg xmlns="http://www.w3.org/2000/svg" width="15" height="15" viewBox="0 0 15 15"><path id="Icon" d="M1226.95 92.667a.485.485 0 0 0-.48-.369 1.656 1.656 0 0 1-1.13-2.882.413.413 0 0 0 .04-.566 7.225 7.225 0 0 0-1.19-1.2.418.418 0 0 0-.57.046 1.725 1.725 0 0 1-1.87.42 1.672 1.672 0 0 1-1.01-1.628.42.42 0 0 0-.37-.438 7.426 7.426 0 0 0-1.68 0 .429.429 0 0 0-.38.429 1.654 1.654 0 0 1-1.02 1.6 1.737 1.737 0 0 1-1.86-.423.423.423 0 0 0-.57-.048 8.052 8.052 0 0 0-1.21 1.2.409.409 0 0 0 .05.57 1.667 1.667 0 0 1 .42 1.871 1.74 1.74 0 0 1-1.64 1.014.412.412 0 0 0-.43.368 6.953 6.953 0 0 0 0 1.706.487.487 0 0 0 .49.369 1.641 1.641 0 0 1 1.54 1.028 1.66 1.66 0 0 1-.42 1.855.412.412 0 0 0-.04.565 7.824 7.824 0 0 0 1.18 1.2.414.414 0 0 0 .57-.045 1.73 1.73 0 0 1 1.87-.421 1.664 1.664 0 0 1 1.02 1.628.419.419 0 0 0 .37.438 7.385 7.385 0 0 0 .86.05 7.141 7.141 0 0 0 .82-.046.428.428 0 0 0 .38-.429 1.653 1.653 0 0 1 1.02-1.6 1.735 1.735 0 0 1 1.86.423.424.424 0 0 0 .57.047 7.954 7.954 0 0 0 1.21-1.2.409.409 0 0 0-.05-.57 1.667 1.667 0 0 1-.42-1.871 1.685 1.685 0 0 1 1.54-1.017h.09a.418.418 0 0 0 .44-.368 6.953 6.953 0 0 0 0-1.706zm-7.45 3.509a2.676 2.676 0 1 1 2.67-2.676 2.679 2.679 0 0 1-2.67 2.676z" transform="translate(-1212 -86)" fill="#555" fill-rule="evenodd"/></svg>