<svg version="1.1" id="Слой_1" xmlns="http://www.w3.org/2000/svg" xmlns:xlink="http://www.w3.org/1999/xlink" x="0" y="0" viewBox="0 0 270 270" xml:space="preserve"><path d="M259.2 154.7c1-6.4 1.5-12.9 1.5-19.5 0-69-56-125-125-125-6.6 0-13.1.5-19.5 1.5C104.7 4.6 91.1.5 76.5.5 34.8.5 1 34.3 1 76c0 14.6 4.1 28.1 11.2 39.7-1 6.4-1.5 12.9-1.5 19.5 0 69 56 125 125 125 6.6 0 13.2-.5 19.5-1.5 11.5 7.1 25.1 11.2 39.7 11.2 41.7 0 75.5-33.8 75.5-75.5 0-14.6-4.1-28.2-11.2-39.7zM195 192.1c-5.3 7.6-13.1 13.6-23.2 17.8-10.2 4.3-22.2 6.4-36.1 6.4-16.6 0-30.4-2.9-41.3-8.8-7.7-4.2-14-9.9-18.8-16.9-4.8-7-7.3-13.9-7.3-20.7 0-4 1.5-7.4 4.5-10.2 3-2.8 6.8-4.3 11.3-4.3 3.7 0 6.9 1.1 9.5 3.3 2.6 2.2 4.7 5.4 6.5 9.7 2.1 4.9 4.4 9 6.9 12.3 2.4 3.2 5.8 5.9 10.3 8.1 4.4 2.1 10.2 3.2 17.5 3.2 10 0 18.1-2.2 24.2-6.4 6.2-4.3 9.2-9.5 9.2-15.9 0-5-1.6-9.1-4.9-12.2-3.3-3.2-7.6-5.6-13-7.3-5.4-1.7-12.5-3.5-21.5-5.4-12.1-2.6-22.2-5.7-30.4-9.2-8.2-3.5-14.7-8.4-19.6-14.5-4.8-6.2-7.3-13.8-7.3-22.9 0-8.7 2.6-16.4 7.7-23.2 5.1-6.8 12.5-11.9 22.1-15.6 9.6-3.6 20.9-5.4 33.9-5.4 10.4 0 19.3 1.2 26.9 3.6 7.6 2.4 13.9 5.6 18.9 9.6 5 4 8.7 8.2 11 12.6 2.3 4.4 3.5 8.7 3.5 12.9 0 3.9-1.5 7.4-4.5 10.6-2.9 3.1-6.7 4.7-11.1 4.7-4 0-7.1-.9-9.3-2.9-2.1-1.9-4.3-4.9-6.7-9-3-5.8-6.6-10.3-10.9-13.6-4.1-3.2-10.9-4.8-20.3-4.8-8.7 0-15.7 1.8-20.9 5.3-5.3 3.5-7.8 7.6-7.8 12.4 0 3 .9 5.5 2.6 7.7 1.8 2.2 4.2 4.1 7.4 5.7 3.2 1.6 6.4 2.9 9.6 3.8 3.3.9 8.7 2.3 16.2 4 9.5 2 18.1 4.3 25.8 6.8 7.7 2.5 14.3 5.5 19.7 9.1 5.5 3.6 9.8 8.1 12.8 13.6 3.1 5.5 4.6 12.3 4.6 20.2.3 9.6-2.4 18.2-7.7 25.8z" fill="#fff"/></svg>