<svg xmlns="http://www.w3.org/2000/svg" width="16" height="13"><path fill-rule="evenodd" fill="#FFF" d="M15.052 1.542a5.863 5.863 0 0 1-1.766.516A3.27 3.27 0 0 0 14.639.243a5.96 5.96 0 0 1-1.953.796A2.984 2.984 0 0 0 10.441.003c-1.699 0-3.075 1.47-3.075 3.281 0 .257.027.508.08.748C4.891 3.895 2.624 2.589 1.108.603a3.435 3.435 0 0 0-.416 1.65c0 1.139.543 2.143 1.367 2.731a2.918 2.918 0 0 1-1.393-.411v.042c0 1.589 1.06 2.915 2.467 3.217a2.899 2.899 0 0 1-1.389.057c.392 1.303 1.528 2.252 2.873 2.278a5.921 5.921 0 0 1-4.552 1.359A8.305 8.305 0 0 0 4.777 13c5.656 0 8.75-5 8.75-9.336a9.96 9.96 0 0 0-.009-.424 6.508 6.508 0 0 0 1.534-1.698z"/></svg>