<svg xmlns="http://www.w3.org/2000/svg" width="18" height="10"><path fill-rule="evenodd" d="M8.466 9.871h1.016s.306-.034.462-.207c.144-.159.14-.456.14-.456s-.02-1.394.613-1.599c.624-.203 1.423 1.346 2.272 1.942.642.452 1.13.352 1.13.352l2.267-.032s1.187-.075.624-1.029c-.046-.079-.328-.707-1.687-1.997-1.422-1.35-1.231-1.132.482-3.469 1.044-1.422 1.461-2.291 1.331-2.663-.125-.355-.891-.26-.891-.26l-2.556.016s-.189-.027-.329.059c-.138.084-.225.281-.225.281s-.405 1.101-.944 2.036c-1.138 1.977-1.592 2.081-1.778 1.959-.433-.287-.325-1.15-.325-1.763 0-1.914.284-2.713-.552-2.919C9.238.053 9.033.008 8.324.001c-.912-.01-1.683.003-2.12.221-.291.145-.515.47-.379.489.169.023.552.106.755.388.261.364.252 1.182.252 1.182s.151 2.254-.351 2.534c-.345.193-.817-.2-1.831-1.993-.519-.918-.911-1.933-.911-1.933S3.663.7 3.528.599a1.044 1.044 0 0 0-.393-.162L.709.453S.344.463.21.625c-.118.144-.009.443-.009.443s1.9 4.548 4.051 6.839c1.973 2.102 4.214 1.964 4.214 1.964z"/></svg>