<svg version="1.1" id="Layer_3" xmlns="http://www.w3.org/2000/svg" xmlns:xlink="http://www.w3.org/1999/xlink" x="0" y="0" viewBox="0 0 1520 456" xml:space="preserve"><style>.st0{fill:#e61c51}.st1{fill:#de1132}.st2{fill:#ea2f69}</style><path class="st0" d="M6.9 113.5V23.8h89.7z"/><path class="st1" d="M6.9 113.5h89.7V23.8z"/><path class="st0" d="M6.9 220.4v-69.9h89.7z"/><path class="st0" d="M6.9 220.4l89 96.5.7-166.4z"/><path class="st1" d="M6.9 220.4l89 96.5-89 98.8zm89 195.3v-98.8l-89 98.8zm67.9-308v-84h40zm0 0h60.7l-20.7-84z"/><path class="st0" d="M237.9 23.7l-13.4 84-20.7-84zm0 0l-13.4 84 47.8-.7z"/><path class="st0" d="M237.9 23.7h85.5L272.3 107z"/><path class="st1" d="M326.3 108.1l-2.9-84.4-51.1 83.3z"/><path class="st1" d="M326.3 108.1l-2.9-84.4 35.9 5.6zm0 0l23.7 11.8 9.3-90.6zm74.9-57.8L350 119.9l9.3-90.6zm0 0L350 119.9l78.4-42.4zm-40.3 85.6l-10.9-16 78.4-42.4zm0 0l86.6-22.6-19.1-35.8zm0 0l86.6-22.6-82.8 36.3zm93.5 8.6l-6.9-31.2-82.8 36.3z"/><path class="st0" d="M454.4 144.5l.6 11.2-90.3-6.1zm-35.2 59.7l35.8-48.5-90.3-6.1z"/><path class="st1" d="M419.2 204.2l35.8-48.5-7.5 44z"/><path class="st1" d="M419.2 204.2v40.7l28.3-45.2zm0 0v40.7l-38.4 10.3zm-36.4 67.6l36.4-26.9-38.4 10.3zm0 0l-60.3 60.7 58.3-77.3zm0 0l-60.3 60.7 93.4-3.7zm-37.1 101.8l-23.2-41.1 93.4-3.7zm0 0l93.3-4.9-23.1-39.9z"/><path class="st0" d="M345.7 373.6l93.3-4.9-69.1 47.1z"/><path class="st0" d="M465.4 414.3L439 368.7l-69.1 47.1zm-46.2-210.1L361.6 179l3.1-29.4z"/><path class="st0" d="M419.2 204.2L361.6 179l19.2 76.2zm-73-4.5l15.4-20.7 19.2 76.2z"/><path class="st0" d="M346.2 199.7l-23.7 132.8 58.3-77.3z"/><path class="st0" d="M346.2 199.7l-23.7 132.8-1.8-124z"/><path class="st0" d="M296 287l26.5 45.5-1.8-124zm0 0l-42.6-78.5V287z"/><path class="st0" d="M296 287l-42.6-78.5h67.3zm-95.2-79.3l52.6.8V287z"/><path class="st0" d="M200.8 207.7l-37 49.6 89.6 29.7z"/><path class="st0" d="M163.8 386.8V257.3l89.6 29.7zm0 0l89.6-18.3V287z"/><path class="st1" d="M163.8 386.8l89.6-18.3-89.6 47.3zm89.6 27.8v-46.1l-89.6 47.3zm-52.6-206.9l-37 49.6v-49.6z"/><path class="st0" d="M669.5 331.6l18.4-22.9 91 25.6zm109.4-46.3l-91 23.4 91 25.6z"/><path class="st0" d="M778.9 285.3l-91 23.4 7-30.4z"/><path class="st0" d="M778.9 285.3v-46.7l-84 39.7zm-109.4 46.3l25.4 57.9 84-55.2z"/><path class="st1" d="M730 415.8h48.9v-81.5z"/><path class="st0" d="M730 415.8l-35.1-26.3 84-55.2z"/><path class="st0" d="M730 415.8l-35.1-26.3v26.3zm-60.5-84.2l25.4 57.9-27.1 21.4z"/><path class="st0" d="M669.5 331.6L641.6 343l26.2 67.9z"/><path class="st1" d="M624.4 423.1l17.2-80.1 26.2 67.9z"/><path class="st1" d="M624.4 423.1l17.2-80.1-31.3-1zm0 0l-38.5-2.1 24.4-79z"/><path class="st1" d="M542.5 402.7l43.4 18.3 24.4-79zm0 0l41.8-73.9 26 13.2z"/><path class="st0" d="M542.5 402.7l41.8-73.9-70.9 47.9z"/><path class="st0" d="M568.8 308.7l15.5 20.1-70.9 47.9z"/><path class="st0" d="M568.8 308.7L490.9 342l22.5 34.7z"/><path class="st0" d="M568.8 308.7L490.9 342l71.1-60.7z"/><path class="st0" d="M479 296.6l11.9 45.4 71.1-60.7z"/><path class="st1" d="M479 296.6v-41.4l83 26.1z"/><path class="st1" d="M564.3 253.4l-85.3 1.8 83 26.1z"/><path class="st1" d="M564.3 253.4l-85.3 1.8 15-51zm0 0L524.6 163 494 204.2z"/><path class="st1" d="M564.3 253.4L524.6 163l52.6 66.7z"/><path class="st1" d="M564.3 137.3L524.6 163l52.6 66.7z"/><path class="st1" d="M564.3 137.3l30.3 78.4-17.4 14z"/><path class="st0" d="M564.3 137.3l30.3 78.4 22.9-7.5zm0 0l40.9-9.3 12.3 80.2z"/><path class="st0" d="M648.3 132.8l-43.1-4.8 12.3 80.2zm0 0l-6.7 75.7-24.1-.3z"/><path class="st0" d="M648.3 132.8l-6.7 75.7 32.7-64zm19.5 86.6l-26.2-10.9 32.7-64zm0 0l27.1-57.4-20.6-17.5zm0 0l27.1-57.4-3.3 91.4z"/><path class="st0" d="M778.9 135.7l-84 26.3-3.3 91.4zm0 0v102.9l-87.3 14.8zm-84 142.6l84-39.7-87.3 14.8z"/><path class="st0" d="M778.9 135.7l-84 26.3v-26.3zm61.6 0h84.1l-84.1 37.7zm84.1 101.1V135.7l-84.1 37.7z"/><path class="st1" d="M924.6 236.8l-84.1 50.8V173.4zm0 0l-84.1 50.8 84.1-16z"/><path class="st0" d="M924.6 319.3l-84.1-31.7 84.1-16zm0 0l-84.1-31.7 17 128.2z"/><path class="st1" d="M924.6 319.3v96.5h-67.1z"/><path class="st0" d="M840.5 415.8V287.6l17 128.2z"/><path class="st1" d="M1036.6 315.5L963.8 357l22.2 31.5z"/><path class="st1" d="M1036.6 315.5l11.6 19.6-62.2 53.4zm-13.3 97.3l24.9-77.7-62.2 53.4z"/><path class="st0" d="M1023.3 412.8l24.9-77.7 12.1 8.6zm0 0l33.8 8.8 3.2-77.9zm52.9-64.7l-19.1 73.5 3.2-77.9zm0 0l-19.1 73.5 33.9 2z"/><path class="st0" d="M1076.2 348.1l21.1-.6-6.3 76.1zm47.7 71.3l-26.6-71.9-6.3 76.1zm0 0l-26.6-71.9 10.3-3.8z"/><path class="st0" d="M1123.9 419.4l31.6-11.6-47.9-64.1z"/><path class="st0" d="M1181.8 388.5l-26.3 19.3-47.9-64.1z"/><path class="st0" d="M1181.8 388.5l-68.9-50.4-5.3 5.6z"/><path class="st0" d="M1181.8 388.5l-68.9-50.4 79.3 33zm-67.4-55.5l-1.5 5.1 79.3 33zm0 0l85.1 15.1-7.3 23zm0 0l85.1 15.1 1.3-26.1z"/><path class="st0" d="M1114.4 333l-1.5-7.1 87.9-3.9z"/><path class="st0" d="M1194.8 298.8l-81.9 27.1 87.9-3.9z"/><path class="st0" d="M1194.8 298.8l-81.9 27.1 70.8-45.8zm-87.2 22.1l5.3 5 70.8-45.8zm0 0l59.6-55.9 16.5 15.1zm0 0l59.6-55.9-24.9-13.3z"/><path class="st0" d="M1107.6 320.9l-15.3-6.7 50-62.5z"/><path class="st0" d="M1115.7 242.8l-23.4 71.4 50-62.5z"/><path class="st0" d="M1115.7 242.8l-23.4 71.4-34.3-9.9zm0 0l-39.5-11.7-18.2 73.2zm-88.4 50.1l48.9-61.8-18.2 73.2zm0 0l48.9-61.8-8.3-4.6zm0 0l-18.4-10.5 59-55.9zM994 269l14.9 13.4 59-55.9z"/><path class="st0" d="M994 269l-10.6-16.4 84.5-26.1z"/><path class="st0" d="M1063.4 220.4l-80 32.2 84.5-26.1z"/><path class="st0" d="M1063.4 220.4l-80 32.2 39.9-45.2z"/><path class="st1" d="M977.6 232.9l5.8 19.7 39.9-45.2z"/><path class="st1" d="M977.6 232.9v-27.1l45.7 1.6zm10.1-57.2l-10.1 30.1 45.7 1.6z"/><path class="st1" d="M987.7 175.7l50.5 14.1-14.9 17.6z"/><path class="st1" d="M987.7 175.7l50.5 14.1-32.9-35.3z"/><path class="st1" d="M1025.7 141.1l12.5 48.7-32.9-35.3z"/><path class="st1" d="M1025.7 141.1l12.5 48.7 15.7-58.5z"/><path class="st1" d="M1066.1 158.9l-27.9 30.9 15.7-58.5z"/><path class="st1" d="M1066.1 158.9l10.1-30.7-22.3 3.1z"/><path class="st1" d="M1066.1 158.9l10.1-30.7h16.1z"/><path class="st0" d="M1063.4 220.4v-6.5l-40.1-6.5z"/><path class="st0" d="M1038.2 189.8l25.2 24.1-40.1-6.5z"/><path class="st0" d="M1038.2 189.8l25.2 24.1 2.7-5.3z"/><path class="st0" d="M1038.2 189.8l27.9-30.9v49.7zm38 13.2l-10.1-44.1v49.7z"/><path class="st0" d="M1076.2 203l-10.1-44.1 26.2-30.7z"/><path class="st0" d="M1076.2 203l16.1-.9v-73.9zm37.9-72.3l-21.8 71.4v-73.9z"/><path class="st1" d="M1114.1 130.7l-21.8 71.4 13 4.2z"/><path class="st1" d="M1114.1 130.7l27.1 8.4-35.9 67.2zm54.3 25.1l-27.2-16.7-35.9 67.2zm0 0l-52.7 58.6-10.4-8.1zm0 0l-52.7 58.6 69.1-42.2zm-44.4 70.7l-8.3-12.1 69.1-42.2zm0 0l71.7-38.7-10.9-15.6zM1503.3 366l-41.6-23.9 27.9 40.1z"/><path class="st1" d="M1450.2 369.6l11.5-27.5 27.9 40.1zm0 0l19.1 29.4 20.3-16.8z"/><path class="st1" d="M1450.2 369.6l19.1 29.4-19.1 10.7zm0 0l-19.9 47.3 19.9-7.2z"/><path class="st0" d="M1450.2 369.6l11.5-27.5-25.6-14.8zm0 0l-25.4-32.9 11.3-9.4z"/><path class="st0" d="M1450.2 369.6l-25.4-32.9 5.5 80.2z"/><path class="st0" d="M1408.3 345.1l16.5-8.4 5.5 80.2z"/><path class="st0" d="M1408.3 345.1l-9.5 77.8 31.5-6z"/><path class="st0" d="M1408.3 345.1l-9.5 77.8-11.6-74.4z"/><path class="st0" d="M1368 422.9h30.8l-11.6-74.4z"/><path class="st0" d="M1368 422.9l1.2-75 18 .6z"/><path class="st0" d="M1368 422.9l1.2-75-31.3 70.9z"/><path class="st0" d="M1347.5 342.7l21.7 5.2-31.3 70.9zm0 0l-39.2 66 29.6 10.1z"/><path class="st0" d="M1347.5 342.7l-39.2 66 22.2-76.4z"/><path class="st0" d="M1277 389.6l31.3 19.1 22.2-76.4zm0 0l41.4-73.1 12.1 15.8z"/><path class="st0" d="M1277 389.6l41.4-73.1-66.1 46.1z"/><path class="st1" d="M1248.4 356.8l70-40.3-66.1 46.1z"/><path class="st1" d="M1248.4 356.8l70-40.3-28-60z"/><path class="st0" d="M1248.4 356.8l-14.5-30.9 56.5-69.4zm-21.6-63.9l7.1 33 56.5-69.4zm0 0v-34.2l63.6-2.2zm7.5-68.6l-7.5 34.4 63.6-2.2zm0 0l60.9 20.9-4.8 11.3z"/><path class="st0" d="M1234.3 224.3l60.9 20.9-42.6-56.9z"/><path class="st0" d="M1315.1 197.7l-19.9 47.5-42.6-56.9z"/><path class="st0" d="M1315.1 197.7l-38.8-35.4-23.7 26z"/><path class="st0" d="M1315.1 197.7l-38.8-35.4 28.8-19.1z"/><path class="st0" d="M1315.1 197.7l28-67-38 12.5z"/><path class="st1" d="M1418.3 246.5l-103.2 62.9-24.7-52.9z"/><path class="st1" d="M1418.3 246.5l-123.1-1.3-4.8 11.3zm0 0l-103.2 62.9h15.4z"/><path class="st1" d="M1313.7 245.4l-18.5-.2 19.9-47.5z"/><path class="st1" d="M1313.7 245.4l9.7-20.1-8.3-27.6z"/><path class="st1" d="M1334 214.4l-10.6 10.9-8.3-27.6z"/><path class="st1" d="M1334 214.4l13.5-7.4-32.4-9.3z"/><path class="st1" d="M1343.1 130.7l4.4 76.3-32.4-9.3z"/><path class="st1" d="M1343.1 130.7l4.4 76.3 17.5-4.1zm0 0l31.9-2.8-10 75zm40 72.2l-8.1-75-10 75z"/><path class="st1" d="M1383.1 202.9l-8.1-75 29.9 2.9z"/><path class="st1" d="M1383.1 202.9l16.7 4.1 5.1-76.2zm57.4-59.7l-40.7 63.8 5.1-76.2zm0 0l-40.7 63.8 7.3 3.5zm0 0l25.2 16.6-58.6 50.7z"/><path class="st1" d="M1420.6 221.6l45.1-61.8-58.6 50.7zm0 0l45.1-61.8 18.5 18.7zm0 0l10 16.3 53.6-59.4zm73.9-28.6l-63.9 44.9 53.6-59.4z"/><path class="st2" d="M1494.5 193l-63.9 44.9 3.2 8.7zm0 0l15.4 34-76.1 19.6z"/><path class="st2" d="M1475.4 309.4l34.5-82.4-76.1 19.6zm0 0h-144.9l103.3-62.8z"/><path class="st2" d="M1418.3 246.5l-87.8 62.9 103.3-62.8z"/><path class="st0" d="M1475.4 309.4l34.5-82.4 7.4 42.5zm0 0h38.5l3.4-39.9z"/></svg>