<svg version="1.1" id="Слой_1" xmlns="http://www.w3.org/2000/svg" xmlns:xlink="http://www.w3.org/1999/xlink" x="0" y="0" viewBox="0 0 99.2 28.3" xml:space="preserve"><style>.st0,.st1{fill:#c52850}.st1{opacity:.8}.st2{fill:#be1e34}.st3,.st4{opacity:.9;fill:#c52850}.st4{opacity:.6}</style><path class="st0" d="M.8 13.8l5.8 6.3V9.2H.8z"/><path class="st1" d="M.8 13.8l5.8 6.3V9.2H.8z"/><path class="st2" d="M.8 26.4h5.8v-6.3L.8 13.8z"/><path class="st0" d="M.8 6.8l5.8-5.1v-.1l-5.8 5z"/><path class="st0" d="M.8 6.6l5.8-5V1H.8zm0 .2h5.8V1.7L.8 6.8z"/><path class="st2" d="M.8 6.8h5.8V1.7L.8 6.8z"/><path class="st0" d="M11 24.5l.7-.1zM21.3 2v.1L18 6.5l3.3-4.4zm3.5 14.3v.1L21.3 21v.1l3.5-4.7zm-2 7.4l3.6-.2z"/><path class="st0" d="M21.3 2l.7-1h-8.5l.5 1.7.9 3.8H18L21.3 2z"/><path class="st1" d="M21.3 2l.7-1h-8.5l.5 1.7.9 3.8H18L21.3 2z"/><path class="st0" d="M22.1 1.1l-.7 1-.1.1L18 6.5h3.2c1.4 0 2.6 1.1 2.9 2.7l5.8-.3c-.5-4.2-3.7-7.4-7.8-7.8z"/><path class="st2" d="M22.1 1.1l-.7 1-.1.1L18 6.5h3.2c1.4 0 2.6 1.1 2.9 2.7l5.8-.3c-.5-4.2-3.7-7.4-7.8-7.8z"/><path class="st0" d="M22.1 1.1H22l-.7.9z"/><path class="st1" d="M22.1 1.1H22l-.7.9z"/><path class="st3" d="M22.1 1.1H22l-.7.9z"/><path class="st0" d="M17.8 18.1h1.8l1.7 3 3.5-4.7.1-.1 5-6.7v-.7l-5.9.3v.6c0 1.8-1.3 3.3-2.9 3.3h-4.4V13h-.3l1 4 .4 1.1z"/><path class="st0" d="M24.8 16.4l-3.5 4.7 1.5 2.6 3.7-.2h.1l2.3-.1-3.6-6.3c2.8-1.4 4.7-4.2 4.7-7.4v-.1l-5.2 6.8z"/><path class="st2" d="M24.8 16.4l-3.5 4.7 1.5 2.6 3.7-.2h.1l2.3-.1-3.6-6.3c2.8-1.4 4.7-4.2 4.7-7.4v-.1l-5.2 6.8z"/><path class="st0" d="M29.9 9.6s-.1 0 0 0l-5 6.7 5-6.7z"/><path class="st2" d="M29.9 9.6s-.1 0 0 0l-5 6.7 5-6.7z"/><path class="st0" d="M26.4 23.5l-3.6.2 1.5 2.7h6.3l-1.8-3-2.3.1z"/><path class="st2" d="M13.6 1H11v5.5h3.9L14 2.7zM11 12.9v3.3l2.4-3.3z"/><path class="st0" d="M11.9 24.4l4.9-.3v-6h1l-.3-1.2-1-4h-3.1L11 16.2v8.3l.7-.1z"/><path class="st2" d="M16.8 24.1l-4.9.3h-.2l-.7.1v1.9h5.8z"/><path class="st0" d="M35.7 25.2l-.2.4.2-.4zm-4.3-6.5l1.5-.3zm19.4 7.5l-.3.2h.3zm-1.3-2.9l1.3-2.3-.8 1.3zm-7.1-10.2l2.2-3.9-2.2 3.9c-.1 0 0 0 0 0z"/><path class="st0" d="M38.9 13.5c.6-.3 1.4-.5 2.2-.5.5 0 .9.1 1.3.2l2.2-3.9c-1.1-.9-2.7-1.4-4.6-1.4-1.1 0-2.1.2-3 .6l.7 1.9 1.2 3.1z"/><path class="st0" d="M45.2 15.9l2.2-.4 3.4-.6V8.3h-5.4V10c-.2-.3-.5-.5-.8-.8l-2.2 3.9c1.3.4 2.4 1.4 2.8 2.8z"/><path class="st0" d="M50 22.3l.8-1.4v-6.1l-3.4.6-2.2.4c.1.4.2.9.2 1.4 0 2.3-1.4 3.9-3.3 4.3l.9 2.3.8 2.1c.6-.4 1.2-.8 1.6-1.3v1.7h2.3l1.8-3.1.5-.9z"/><path class="st2" d="M33.1 18.4l3.7-.7v-.4c0-1.8.8-3.2 2.1-3.9l-1.2-3.2-.7-1.9c-3.3 1.3-5.6 4.8-5.6 9 0 .5 0 .9.1 1.3l1.5-.3.1.1z"/><path class="st0" d="M35.7 25.2l2.5-4.4c-.8-.7-1.4-1.8-1.4-3.1l-3.7.7H33l-1.5.3c.4 3 1.9 5.4 4.1 6.9l.1-.4z"/><path class="st0" d="M41.9 21.7c-.3 0-.6.1-.9.1-1.1 0-2.1-.4-2.8-1l-2.5 4.4v.1l-.2.3c1.3.9 2.8 1.4 4.5 1.4 1.4 0 2.7-.3 3.6-.8l-.9-2.4-.8-2.1z"/><path class="st2" d="M41.9 21.7c-.3 0-.6.1-.9.1-1.1 0-2.1-.4-2.8-1l-2.5 4.4v.1l-.2.3c1.3.9 2.8 1.4 4.5 1.4 1.4 0 2.7-.3 3.6-.8l-.9-2.4-.8-2.1z"/><path class="st0" d="M42.1 21.7H42l.8 2 .9 2.4s.1 0 .1-.1l-.9-2-.8-2.3z"/><path class="st4" d="M42.1 21.7H42l.8 2 .9 2.4s.1 0 .1-.1l-.9-2-.8-2.3z"/><path class="st0" d="M35.7 25.2l2.5-4.4-2.5 4.4z"/><path class="st4" d="M35.7 25.2l2.5-4.4-2.5 4.4z"/><path class="st2" d="M50.8 21l-1.3 2.3-1.9 3.1h2.9l.3-.2z"/><path class="st0" d="M58.6 22.5l-.1.1-2.6 3.8 2.6-3.8zm1.6-7.7V8.3h-5.4v2.4l2.4 1.8z"/><path class="st2" d="M60.2 17.1v-2.3l-3-2.3-2.4-1.8v7.4z"/><path class="st0" d="M54.8 26.4h1.1l2.6-3.8.1-.1 1.6-2.3v-3.1l-5.4 1z"/><path class="st2" d="M58.5 22.6l-2.6 3.8h4.3v-6.2l-1.6 2.3z"/><path class="st0" d="M90.4 16.7l-.1.1-3.9 2.7 4-2.7zM81.5 23l4.3-3-4.3 3zm3.1 2.7l-.9-.5c.3.2.6.4.9.5zm13.8-6.2c.1-.7.2-1.4.2-2.2 0-1.1-.2-2.2-.5-3.2l-2.2 5.3h2.5z"/><path class="st2" d="M97.7 23.2L95 21.6l-2 4.8c1.9-.5 3.5-1.6 4.7-3.2zm-7.3-6.5l1.8-1.3h-6.8c.5-1.8 1.9-2.9 4-2.9 1.5 0 2.9.6 3.6 2.3l4.1-2.9c-1.6-2.6-4.4-4.2-7.7-4.2-.7 0-1.4.1-2.1.2l-2.5 5.9-3.7 8.8c.1.1.2.3.3.4l4.3-3c-.1-.1-.2-.3-.2-.5h.9l4-2.8z"/><path class="st3" d="M97.1 12L93 14.9c.1.2.1.4.2.6h-1l-1.8 1.3-3.9 2.8H96l2.2-5.3c-.3-.9-.6-1.6-1.1-2.3z"/><path class="st0" d="M83.7 25.2l.9.5c1.5.8 3.2 1.2 5.2 1.2 1.2 0 2.2-.2 3.2-.4l2-4.8-1.7-1c-.7.8-2 1.4-3.5 1.4-1.8 0-3.3-.5-4.1-2.1l-4.3 3c.7.9 1.4 1.6 2.3 2.2zM87.3 8c-4.6.9-7.6 4.7-7.6 9.4 0 2 .5 3.8 1.5 5.2l3.7-8.8L87.3 8zM69.2 18.1l1.1-3.5-1.1 3.5zm7.7-.6l-1 1.1zm-5.8-9.7l-7.1 8 7.1-8zm-.1 4.8L72.5 8 71 12.6zm7.1 8.4c0-1.6-.5-2.7-1.2-3.5l-1 1.1-.2.2-7 7.9c.6.1 1.2.1 1.8.1 4 .1 7.6-1.7 7.6-5.8zm-4.9-6.8l4.6-2.5c-1.2-2-3.1-3.3-5.3-3.7L71 12.6c1 .1 1.7.7 2.2 1.6z"/><path class="st2" d="M73.2 14.2l4.6-2.5c-1.2-2-3.1-3.3-5.3-3.7L71 12.6c1 .1 1.7.7 2.2 1.6z"/><path class="st0" d="M75.9 18.6l1-1.1c-1.7-1.9-4.8-2.3-6.5-2.9l-1.1 3.5-.3 1.1c1.9.6 3.7.9 3.7 1.7 0 .7-.7 1.1-2 1.1-1 0-1.8-.3-2.3-.9l-1.6 5c.6.3 1.3.4 2.1.6l7-7.9v-.2z"/><path class="st1" d="M75.9 18.6l1-1.1c-1.7-1.9-4.8-2.3-6.5-2.9l-1.1 3.5-.3 1.1c1.9.6 3.7.9 3.7 1.7 0 .7-.7 1.1-2 1.1-1 0-1.8-.3-2.3-.9l-1.6 5c.6.3 1.3.4 2.1.6l7-7.9v-.2z"/><path class="st0" d="M75.9 18.6l-.2.2-7 7.9 7-7.9.2-.2z"/><path class="st1" d="M75.9 18.6l-.2.2-7 7.9 7-7.9.2-.2z"/><path class="st0" d="M69.2 18.1l1.1-3.5c-.7-.2-1.2-.5-1.2-1 0-.7.6-1 1.5-1h.3L72.4 8c-.4-.1-.9-.1-1.3-.2l-7.1 8c.9 1.9 2.9 2.8 4.8 3.3l.4-1z"/><path class="st2" d="M67.5 19.9l-4.7 2.7c.8 1.7 2.2 2.9 3.9 3.6l1.6-5c-.4-.3-.6-.8-.8-1.3zm3.2-12.1c-3.8 0-7.1 2-7.1 5.9 0 .8.2 1.5.4 2.1l7.1-8h-.4z"/></svg>