<svg xmlns="http://www.w3.org/2000/svg" width="588" height="296"><defs><linearGradient id="PSgrad_0" x1="86.603%" x2="0%" y1="50%" y2="0%"><stop offset="15%" stop-color="#FFF" stop-opacity="0"/><stop offset="100%" stop-color="#D1E4E6"/><stop offset="100%" stop-color="#D1E4E6"/></linearGradient></defs><path fill-rule="evenodd" fill="#FFF" d="M8 0h572a8 8 0 0 1 8 8v280a8 8 0 0 1-8 8H8a8 8 0 0 1-8-8V8a8 8 0 0 1 8-8z"/><path fill-rule="evenodd" fill="none" d="M615.43-165.968l398.831 253.226-771.683 1215.705-398.831-253.226L615.43-165.968z"/><path fill="url(#PSgrad_0)" d="M615.43-165.968l398.831 253.226-771.683 1215.705-398.831-253.226L615.43-165.968z"/></svg>